<svg width="40" height="41" viewBox="0 0 40 41" fill="none" xmlns="http://www.w3.org/2000/svg">
<g clip-path="url(#clip0_641_5938)">
<path d="M5.9375 39.6992C4.47379 39.6992 3.28125 38.5067 3.28125 37.043V28.3358L3.17731 28.2989C2.14685 27.9327 1.40625 26.9465 1.40625 25.793V16.7117C1.40625 13.0167 4.41134 10.0117 8.10313 10.0117C11.5477 10.0117 14.4086 12.5913 14.7664 16.0144C14.7698 16.0523 14.7709 16.0673 14.7695 16.0805L14.7687 16.0883V25.793C14.7687 26.2254 14.42 26.5742 13.9875 26.5742C13.555 26.5742 13.2062 26.2254 13.2062 25.793V16.1404L13.2053 16.1317C12.912 13.5309 10.7264 11.5742 8.10313 11.5742C5.27302 11.5742 2.96875 13.8786 2.96875 16.7117V25.793C2.96875 26.3949 3.46058 26.8867 4.0625 26.8867C4.49496 26.8867 4.84375 27.2355 4.84375 27.668V37.043C4.84375 37.6449 5.33558 38.1367 5.9375 38.1367C6.53942 38.1367 7.03125 37.6449 7.03125 37.043V25.793C7.03125 25.3605 7.38004 25.0117 7.8125 25.0117C8.24496 25.0117 8.59375 25.3605 8.59375 25.793V37.043C8.59375 37.6449 9.08558 38.1367 9.6875 38.1367C10.2894 38.1367 10.7812 37.6449 10.7812 37.043V28.918C10.7812 28.4855 11.13 28.1367 11.5625 28.1367C11.995 28.1367 12.3438 28.4855 12.3438 28.918V37.043C12.3438 38.5067 11.1512 39.6992 9.6875 39.6992C9.00618 39.6992 8.38667 39.4398 7.91699 39.0174L7.8125 38.9234L7.70801 39.0174C7.23833 39.4398 6.61882 39.6992 5.9375 39.6992Z" fill="#00944A"/>
<path d="M16.7188 29.8555V30.0117H23.2812V24.543C23.2812 24.1105 23.63 23.7617 24.0625 23.7617C24.495 23.7617 24.8438 24.1105 24.8438 24.543V29.8555C24.8438 30.8035 24.0731 31.5742 23.125 31.5742H22.9116L22.3411 38.9779C22.3099 39.3863 21.966 39.6992 21.5625 39.6992C21.5394 39.6992 21.5239 39.6989 21.51 39.6971L21.5029 39.6966C21.0725 39.6627 20.7501 39.2869 20.7839 38.8581L21.3437 31.5742H18.6563L19.2161 38.8584C19.2499 39.2872 18.9274 39.6625 18.4971 39.6964L18.49 39.6973C18.476 39.699 18.4634 39.6992 18.4375 39.6992C18.0312 39.6992 17.6902 39.3865 17.6589 38.9778L17.0884 31.5742H16.875C15.9269 31.5742 15.1562 30.8035 15.1562 29.8555C15.1562 29.423 15.505 29.0742 15.9375 29.0742C16.37 29.0742 16.7188 29.423 16.7188 29.8555Z" fill="#00944A"/>
<path fill-rule="evenodd" clip-rule="evenodd" d="M20 8.44922C17.8457 8.44922 16.0938 6.6973 16.0938 4.54297C16.0938 2.38864 17.8457 0.636719 20 0.636719C22.1543 0.636719 23.9062 2.38864 23.9062 4.54297C23.9062 6.6973 22.1543 8.44922 20 8.44922ZM17.6562 4.54297C17.6562 3.25042 18.7075 2.19922 20 2.19922C21.2925 2.19922 22.3438 3.25042 22.3438 4.54297C22.3438 5.83551 21.2925 6.88672 20 6.88672C18.7075 6.88672 17.6562 5.83551 17.6562 4.54297Z" fill="#00944A"/>
<path fill-rule="evenodd" clip-rule="evenodd" d="M33.125 24.0742C31.4894 24.0742 30.1562 22.741 30.1562 21.1055C30.1562 19.4699 31.4894 18.1367 33.125 18.1367C34.7606 18.1367 36.0938 19.4699 36.0938 21.1055C36.0938 22.741 34.7606 24.0742 33.125 24.0742ZM31.7188 21.1055C31.7188 20.3285 32.3481 19.6992 33.125 19.6992C33.9019 19.6992 34.5312 20.3285 34.5312 21.1055C34.5312 21.8824 33.9019 22.5117 33.125 22.5117C32.3481 22.5117 31.7188 21.8824 31.7188 21.1055Z" fill="#00944A"/>
<path d="M39.2056 33.7772L38.6557 30.7554C38.1741 28.1132 36.06 26.118 33.3937 25.795C29.9746 25.3799 27.3365 22.6974 26.9821 19.2717L26.6415 16.0123C26.2842 12.5919 23.4231 10.0117 19.9781 10.0117C18.5547 10.0117 17.1962 10.4514 16.0481 11.285C15.6993 11.5375 15.6209 12.0274 15.8734 12.3763C16.1259 12.7251 16.6157 12.8034 16.9646 12.5508C17.8444 11.9127 18.8859 11.5742 19.9781 11.5742C22.6175 11.5742 24.8127 13.5534 25.0867 16.1767L25.4273 19.4361C25.7037 22.0839 27.1041 24.3592 29.1522 25.7963L29.2188 25.843V30.793C29.2188 31.8833 29.6691 32.8686 30.3937 33.5782L30.4364 33.62L30.784 38.9641C30.8101 39.378 31.1537 39.6961 31.5625 39.6961L31.577 39.696L31.5862 39.6958C31.5893 39.6957 31.5918 39.6955 31.5936 39.6954L31.5962 39.6951L31.6043 39.6938L31.6124 39.6933C32.0413 39.6673 32.3699 39.295 32.3441 38.8652L32.0749 34.5553L32.2773 34.5997C32.5523 34.6602 32.8378 34.6961 33.1281 34.6961H34.1726L33.9122 38.8649C33.8864 39.2939 34.2103 39.6651 34.64 39.693C34.6536 39.6933 34.6666 39.6943 34.6745 39.6949L34.676 39.695C34.6876 39.6959 34.6915 39.6961 34.6937 39.6961C35.1025 39.6961 35.4462 39.3783 35.4722 38.9644L35.7847 33.9648C35.7977 33.7479 35.7219 33.5373 35.5742 33.3818C35.4259 33.2258 35.2171 33.1367 35 33.1367H33.125C31.8325 33.1367 30.7812 32.0855 30.7812 30.793V26.7076L30.9945 26.7913C31.6918 27.0646 32.432 27.2551 33.206 27.3472C35.1896 27.5867 36.7634 29.0695 37.1194 31.0339L37.6694 34.0556C37.7368 34.432 38.0671 34.6961 38.4375 34.6961C38.4823 34.6961 38.5293 34.6911 38.58 34.6827C39.0022 34.61 39.2839 34.2023 39.2056 33.7772Z" fill="#00944A"/>
<path fill-rule="evenodd" clip-rule="evenodd" d="M7.8125 8.44922C5.65817 8.44922 3.90625 6.6973 3.90625 4.54297C3.90625 2.38864 5.65817 0.636719 7.8125 0.636719C9.96683 0.636719 11.7188 2.38864 11.7188 4.54297C11.7188 6.6973 9.96683 8.44922 7.8125 8.44922ZM5.46875 4.54297C5.46875 3.25042 6.51996 2.19922 7.8125 2.19922C9.10504 2.19922 10.1562 3.25042 10.1562 4.54297C10.1562 5.83551 9.10504 6.88672 7.8125 6.88672C6.51996 6.88672 5.46875 5.83551 5.46875 4.54297Z" fill="#00944A"/>
</g>
<defs>
<clipPath id="clip0_641_5938">
<rect width="40" height="40" fill="white" transform="translate(0 0.167969)"/>
</clipPath>
</defs>
</svg>
