<svg width="40" height="41" viewBox="0 0 40 41" fill="none" xmlns="http://www.w3.org/2000/svg">
<g clip-path="url(#clip0_612_1877)">
<path d="M35.21 0.352507C34.9748 0.105092 34.6402 -0.0223889 34.3 0.00581124H5.70034C5.032 -0.0419631 4.45132 0.461078 4.40346 1.12942C4.40131 1.15928 4.40031 1.18922 4.4004 1.21916V18.5956C4.41242 20.7486 5.84142 22.6363 7.91032 23.2322L15.5369 25.2688H15.6236C15.829 25.3007 16.0147 25.409 16.1435 25.5721C16.2322 25.7151 16.2774 25.8807 16.2735 26.0488V26.3088C16.2302 26.6122 15.1035 33.7188 15.1035 35.1054C15.1035 37.8097 17.2958 40.002 20.0001 40.002C22.7044 40.002 24.8968 37.8097 24.8968 35.1054C24.8968 33.7621 23.9001 27.5655 23.7268 26.3088H23.6835C23.639 26.0835 23.6857 25.8498 23.8135 25.6588C23.8935 25.4801 24.0549 25.351 24.2467 25.3121H24.4634L32.0467 23.2755C34.1175 22.7095 35.5545 20.829 35.5566 18.6822L35.5999 1.21908C35.6104 0.885656 35.4665 0.565916 35.21 0.352507ZM33.78 18.5089C33.7915 19.9005 32.8675 21.1266 31.5267 21.4989L23.9868 23.5355H23.7702C22.4632 23.9145 21.6695 25.2372 21.9502 26.5688C22.5568 30.2087 23.1202 34.2386 23.1202 35.1053C23.1202 36.8523 21.7039 38.2686 19.9568 38.2686C18.2098 38.2686 16.7935 36.8524 16.7935 35.1053C16.7935 34.1953 17.4435 29.6453 17.9202 26.742C17.9741 26.6342 18.0037 26.5159 18.0069 26.3953C18.0943 25.7496 17.9229 25.0954 17.5302 24.5754C17.1523 24.0404 16.574 23.6809 15.9269 23.5787L8.38698 21.5421C7.05287 21.1871 6.12674 19.976 6.13371 18.5954V15.6055H33.8233L33.78 18.5089ZM33.8233 13.8723H6.13371V1.73921H8.73368V8.23909C8.73368 8.71775 9.12168 9.10575 9.60034 9.10575C10.079 9.10575 10.467 8.71775 10.467 8.23909V1.73921H13.9336V8.23909C13.9336 8.71775 14.3216 9.10575 14.8003 9.10575C15.2789 9.10575 15.6669 8.71775 15.6669 8.23909V1.73921H19.1336V8.23909C19.1336 8.71775 19.5216 9.10575 20.0002 9.10575C20.4789 9.10575 20.8669 8.71775 20.8669 8.23909V1.73921H24.3335V8.23909C24.3335 8.71775 24.7215 9.10575 25.2002 9.10575C25.6788 9.10575 26.0668 8.71775 26.0668 8.23909V1.73921H29.5334V8.23909C29.5334 8.71775 29.9214 9.10575 30.4001 9.10575C30.8788 9.10575 31.2668 8.71775 31.2668 8.23909V1.73921H33.8667L33.8233 13.8723Z" fill="#00944A"/>
</g>
<defs>
<clipPath id="clip0_612_1877">
<rect width="40" height="40" fill="white" transform="translate(0 0.00195312)"/>
</clipPath>
</defs>
</svg>
