<svg width="64" height="64" viewBox="0 0 64 64" fill="none" xmlns="http://www.w3.org/2000/svg">
<g clip-path="url(#clip0_1321_125933)">
<path fill-rule="evenodd" clip-rule="evenodd" d="M32 9.24976C26.6152 9.24976 22.25 13.615 22.25 18.9998C22.25 24.3845 26.6152 28.7498 32 28.7498C37.3848 28.7498 41.75 24.3845 41.75 18.9998C41.75 13.615 37.3848 9.24976 32 9.24976ZM19.75 18.9998C19.75 12.2343 25.2345 6.74976 32 6.74976C38.7655 6.74976 44.25 12.2343 44.25 18.9998C44.25 25.7652 38.7655 31.2498 32 31.2498C25.2345 31.2498 19.75 25.7652 19.75 18.9998Z" fill="#00944A"/>
<path fill-rule="evenodd" clip-rule="evenodd" d="M31.9047 2.65604C30.6263 2.63453 29.3849 2.77575 28.1986 3.05906C27.5272 3.21943 26.8528 2.8051 26.6925 2.13363C26.5321 1.46216 26.9464 0.787818 27.6179 0.627449C29.0056 0.296029 30.4562 0.131312 31.9467 0.156396C33.4225 0.181233 34.8479 0.38079 36.2058 0.735865C36.8737 0.910513 37.2735 1.59353 37.0989 2.26143C36.9242 2.92933 36.2412 3.32919 35.5733 3.15454C34.4086 2.84998 33.1814 2.67753 31.9047 2.65604ZM21.7436 4.74701C22.206 5.25963 22.1653 6.05003 21.6526 6.51243C20.7248 7.34935 19.9036 8.29831 19.2117 9.3349C18.8284 9.90909 18.0522 10.0639 17.478 9.6806C16.9038 9.29733 16.7491 8.52115 17.1323 7.94696C17.94 6.73692 18.8975 5.63083 19.9781 4.65607C20.4908 4.19367 21.2812 4.23439 21.7436 4.74701ZM41.9323 4.91365C42.4007 4.4065 43.1915 4.37507 43.6987 4.84345C44.7523 5.81653 45.6876 6.91496 46.4856 8.11381C46.8681 8.6885 46.7123 9.46447 46.1376 9.847C45.5629 10.2295 44.787 10.0737 44.4044 9.49906C43.7154 8.46384 42.909 7.51721 42.0025 6.68003C41.4954 6.21164 41.4639 5.42081 41.9323 4.91365Z" fill="#00944A"/>
<path fill-rule="evenodd" clip-rule="evenodd" d="M34.5999 52.3247H55.88C56.1344 52.3247 56.4084 52.3919 56.6559 52.557C56.8957 52.7168 57.0399 52.921 57.123 53.0871C57.2036 53.2483 57.2377 53.3944 57.2536 53.4897C57.262 53.5403 57.2667 53.5852 57.2694 53.6223C57.2707 53.6411 57.2716 53.6585 57.2721 53.6743L57.2727 53.6969L57.2728 53.7075L57.2728 53.7126L57.2728 53.715L57.2728 53.7163C57.2728 53.7169 57.2728 53.7175 56.0228 53.7175H57.2728V64.0006C57.2728 64.6909 56.7132 65.2506 56.0228 65.2506C55.3325 65.2506 54.7728 64.6909 54.7728 64.0006V54.8247H35.707V64.0006C35.707 64.6909 35.1474 65.2506 34.457 65.2506C33.7667 65.2506 33.207 64.6909 33.207 64.0006V53.7175C33.207 53.4631 33.2742 53.1892 33.4393 52.9416C33.5991 52.7018 33.8033 52.5576 33.9694 52.4745C34.1307 52.3939 34.2768 52.3598 34.372 52.344C34.4226 52.3355 34.4675 52.3308 34.5046 52.3282C34.5234 52.3268 34.5408 52.326 34.5566 52.3254L34.5793 52.3249L34.5898 52.3247L34.5949 52.3247L34.5974 52.3247L34.5986 52.3247C34.5992 52.3247 34.5998 52.3247 34.5999 53.5747V52.3247Z" fill="#00944A"/>
<path fill-rule="evenodd" clip-rule="evenodd" d="M54.7521 8.70162C55.0787 8.82548 55.3385 9.08029 55.4687 9.40434L61.8877 25.3806C61.9751 25.5847 62.0065 25.7872 62.0188 25.8661L62.0195 25.8708C62.0408 26.008 62.0569 26.1633 62.0697 26.3219C62.0957 26.6421 62.1143 27.0481 62.1279 27.4975C62.1553 28.4004 62.1642 29.54 62.1642 30.6506C62.1642 31.7636 62.1552 32.8575 62.1463 33.6725C62.1418 34.0802 62.1373 34.4185 62.134 34.6551L62.1284 35.0257L62.1283 35.027C62.1283 35.0271 62.1283 35.0275 60.8785 35.0066L62.1283 35.027C62.1253 35.2088 62.0827 35.3882 62.0034 35.5518L53.0057 54.1183C52.7047 54.7396 51.957 54.9991 51.3357 54.6981C50.7145 54.397 50.4549 53.6493 50.756 53.0281L59.6329 34.7107L59.6342 34.6195C59.6375 34.3853 59.642 34.0496 59.6464 33.645C59.6553 32.8354 59.6642 31.7513 59.6642 30.6506C59.6642 29.5475 59.6553 28.4378 59.6291 27.5732C59.6159 27.139 59.5988 26.7818 59.5779 26.524C59.5685 26.4073 59.5593 26.3251 59.5518 26.2724L54.0093 12.4779C53.9759 12.5603 53.9429 12.6448 53.9105 12.7311C53.4686 13.9514 53.5565 15.345 54.0488 16.709L57.7545 25.9732C57.8737 26.2712 57.8737 26.6037 57.7545 26.9017C57.7573 26.8947 57.7588 26.891 57.759 26.891C57.76 26.8914 57.7409 26.9549 57.7091 27.1218C57.6754 27.2992 57.6384 27.5311 57.5996 27.8061C57.5221 28.3545 57.4435 29.03 57.3727 29.6942C57.3021 30.3563 57.2402 30.9975 57.1959 31.4738C57.1737 31.7118 57.156 31.9081 57.1439 32.0447L57.13 32.2025L57.1253 32.2563C57.1011 32.5385 56.9817 32.8048 56.7868 33.0104L48.9318 41.2939C48.6957 41.5428 48.3678 41.6838 48.0247 41.6838H44.8827C44.4145 41.6838 43.9855 41.4221 43.7712 41.0058C43.557 40.5894 43.5934 40.0883 43.8655 39.7072L50.2924 30.7096C50.3324 30.6536 50.377 30.6009 50.4257 30.5523C50.7575 30.2204 50.7347 30.022 50.7228 29.9566C50.7009 29.8376 50.5939 29.6337 50.3123 29.4527C49.7452 29.0881 48.9662 29.0993 48.4401 29.7756C48.417 29.8054 48.3925 29.8341 48.3668 29.8616L40.226 38.5736C40.2164 38.584 40.2066 38.5941 40.1966 38.6041C40.0374 38.7633 39.8231 39.066 39.6274 39.4575C39.4541 39.8042 39.3333 40.1443 39.2773 40.4073V53.5732C39.2773 54.2636 38.7177 54.8232 38.0273 54.8232C37.337 54.8232 36.7773 54.2636 36.7773 53.5732V40.291C36.7773 40.2221 36.783 40.1534 36.7944 40.0855C36.8918 39.501 37.1208 38.8805 37.3913 38.3395C37.6562 37.8098 38.0073 37.2632 38.4124 36.8529L46.5045 28.1929C47.9792 26.3478 50.244 26.4368 51.6642 27.3498C52.3823 27.8114 53.0072 28.5538 53.1818 29.5058C53.3601 30.4787 53.0273 31.4439 52.2717 32.2397L47.3117 39.1838H47.4874L54.6732 31.6061C54.6828 31.5001 54.694 31.3778 54.7066 31.2423C54.7516 30.759 54.8146 30.1059 54.8868 29.4291C54.9588 28.7543 55.0409 28.0463 55.1241 27.4566C55.1656 27.1626 55.209 26.8868 55.2533 26.6541C55.2614 26.6114 55.2703 26.5659 55.2801 26.5187L51.72 17.6184C51.7151 17.6061 51.7104 17.5938 51.7059 17.5813C51.0621 15.8111 50.8667 13.7862 51.563 11.8711L51.5673 11.8594C51.8007 11.2371 52.0848 10.6205 52.4097 10.1005C52.709 9.62166 53.1461 9.05415 53.7498 8.75233C54.0621 8.59615 54.4256 8.57776 54.7521 8.70162ZM59.5417 26.2151C59.5419 26.2149 59.5435 26.2213 59.546 26.2358C59.5428 26.2228 59.5416 26.2154 59.5417 26.2151Z" fill="#00944A"/>
<path fill-rule="evenodd" clip-rule="evenodd" d="M7.70693 53.7175C6.5 53.7175 6.5 53.7169 6.5 53.7163L6.5 53.7151L6.50001 53.7126L6.50004 53.7075L6.50017 53.697L6.50073 53.6743C6.50125 53.6585 6.50211 53.6411 6.50345 53.6223C6.50611 53.5852 6.51081 53.5403 6.51924 53.4897C6.53511 53.3945 6.56919 53.2484 6.64981 53.0871C6.73288 52.921 6.87711 52.7168 7.11686 52.557C7.36444 52.3919 7.63838 52.3247 7.89282 52.3247H29.173L29.173 53.5747M7.70693 53.7175H6.5V64.0006C6.5 64.6909 7.05964 65.2506 7.75 65.2506C8.44036 65.2506 9 64.6909 9 64.0006V54.8247H28.0658V64.0006C28.0658 64.6909 28.6254 65.2506 29.3158 65.2506C30.0061 65.2506 30.5658 64.6909 30.5658 64.0006V53.7175C30.5658 53.4631 30.4986 53.1892 30.3335 52.9416C30.1737 52.7018 29.9695 52.5576 29.8034 52.4745C29.6422 52.3939 29.4961 52.3598 29.4008 52.344C29.3502 52.3355 29.3053 52.3308 29.2682 52.3282C29.2494 52.3268 29.232 52.326 29.2162 52.3254L29.1936 52.3249L29.183 52.3247L29.1779 52.3247L29.1755 52.3247L29.1742 52.3247C29.1736 52.3247 29.173 52.3247 29.173 53.5747" fill="#00944A"/>
<path fill-rule="evenodd" clip-rule="evenodd" d="M9.16209 8.70162C9.48862 8.57776 9.85207 8.59615 10.1644 8.75233C10.7681 9.05415 11.2052 9.62166 11.5045 10.1005C11.8295 10.6205 12.1135 11.2371 12.3468 11.8594L12.3512 11.8711C13.0476 13.7861 12.8521 15.8111 12.2084 17.5813C12.2038 17.5938 12.1991 17.6061 12.1942 17.6184L8.63408 26.5187C8.64388 26.5659 8.65279 26.6114 8.66092 26.6541C8.70525 26.8868 8.7486 27.1626 8.79011 27.4566C8.87336 28.0463 8.95544 28.7543 9.02741 29.4291C9.09961 30.1059 9.16266 30.759 9.20761 31.2423C9.22022 31.3778 9.23142 31.5001 9.24101 31.6061L16.4268 39.1838H16.6025L11.6425 32.2397C10.8869 31.4439 10.5541 30.4787 10.7324 29.5058C10.907 28.5538 11.5319 27.8114 12.25 27.3498C13.6702 26.4368 15.9351 26.3478 17.4097 28.1929L25.5148 36.8668C25.5455 36.8997 25.5745 36.9342 25.6015 36.9702C26.1195 37.661 26.7938 38.9862 26.977 40.0855C26.9884 40.1534 26.9941 40.2221 26.9941 40.291V53.5732C26.9941 54.2636 26.4344 54.8232 25.7441 54.8232C25.0537 54.8232 24.4941 54.2636 24.4941 53.5732V40.4067C24.3692 39.8144 23.9561 38.9655 23.6374 38.5193L15.5474 29.8616C15.5217 29.8341 15.4972 29.8054 15.4741 29.7756C14.9481 29.0993 14.169 29.0881 13.6019 29.4527C13.3203 29.6337 13.2133 29.8376 13.1914 29.9566C13.1795 30.022 13.1567 30.2204 13.4885 30.5523C13.5372 30.6009 13.5818 30.6536 13.6218 30.7096L20.0487 39.7072C20.3208 40.0883 20.3572 40.5894 20.143 41.0058C19.9287 41.4221 19.4998 41.6838 19.0315 41.6838H15.8895C15.5465 41.6838 15.2185 41.5428 14.9825 41.2939L7.12737 33.0104C6.93247 32.8048 6.81315 32.5392 6.78896 32.257L6.78424 32.2025L6.77034 32.0447C6.75819 31.9081 6.7405 31.7118 6.71836 31.4738C6.67405 30.9975 6.61213 30.3563 6.54151 29.6942C6.47067 29.03 6.39207 28.3545 6.31465 27.8061C6.27583 27.5311 6.23884 27.2992 6.20507 27.1218C6.17327 26.9549 6.15418 26.8914 6.15519 26.891C6.15544 26.891 6.15691 26.8947 6.1597 26.9017C6.0405 26.6037 6.0405 26.2712 6.1597 25.9732L9.86538 16.709C10.3577 15.3451 10.4457 13.9514 10.0038 12.7312C9.97132 12.6448 9.93832 12.5603 9.90487 12.4779L4.36241 26.2724C4.35489 26.3251 4.34575 26.4073 4.33629 26.524C4.31538 26.7818 4.29829 27.139 4.28513 27.5732C4.25893 28.4378 4.25 29.5475 4.25 30.6506C4.25 31.7513 4.25888 32.8354 4.26778 33.645C4.27222 34.0496 4.27667 34.3853 4.28 34.6195L4.28135 34.7107L13.1582 53.0281C13.4593 53.6493 13.1997 54.397 12.5785 54.6981C11.9572 54.9991 11.2095 54.7396 10.9085 54.1183L1.91083 35.5518C1.83155 35.3882 1.78891 35.2092 1.78588 35.0275L3.03571 35.0066C1.78588 35.0275 1.78588 35.0276 1.78588 35.0275L1.78025 34.6551C1.77689 34.4185 1.77241 34.0802 1.76793 33.6725C1.75897 32.8575 1.75 31.7636 1.75 30.6506C1.75 29.54 1.75892 28.4004 1.78628 27.4975C1.7999 27.0481 1.81851 26.6421 1.84447 26.3219C1.85733 26.1633 1.87337 26.008 1.8947 25.8708L1.89544 25.8661C1.90768 25.7872 1.93913 25.5847 2.02651 25.3806L8.44553 9.40434C8.57573 9.08029 8.83556 8.82548 9.16209 8.70162ZM4.37248 26.2151C4.37263 26.2156 4.37134 26.2229 4.36818 26.2358C4.37076 26.2211 4.37234 26.2147 4.37248 26.2151Z" fill="#00944A"/>
</g>
<defs>
<clipPath id="clip0_1321_125933">
<rect width="64" height="64" fill="white"/>
</clipPath>
</defs>
</svg>
