<svg width="123" height="204" viewBox="0 0 123 204" fill="none" xmlns="http://www.w3.org/2000/svg">
<path d="M82.6084 145.324H39.6172C39.101 145.324 38.6826 144.906 38.6826 144.39V106.071C38.6826 105.555 39.101 105.137 39.6172 105.137H82.6084C83.1245 105.137 83.543 105.555 83.543 106.071V144.39C83.543 144.906 83.1245 145.324 82.6084 145.324Z" fill="white"/>
<path d="M32.1411 91.9112C32.1411 90.3627 30.8858 89.1074 29.3373 89.1074H15.3184C13.7699 89.1074 12.5146 90.3627 12.5146 91.9112V124.155H32.1411V91.9112Z" fill="#262626"/>
<path d="M32.1411 154.529V124.155H12.5146V154.529H32.1411Z" fill="#262626"/>
<path d="M12.5146 154.529V170.884C12.5146 172.433 13.7699 173.688 15.3184 173.688H35.8794V154.529H32.1411H12.5146Z" fill="#262626"/>
<path d="M66.7209 173.688C68.2694 173.688 69.5247 172.433 69.5247 170.884V157.333C69.5247 155.784 68.2694 154.529 66.7209 154.529H35.8794V173.688H66.7209Z" fill="#262626"/>
<path d="M32.1411 154.529V124.155M32.1411 154.529H12.5146M32.1411 154.529H35.8794M12.5146 124.155V91.9112C12.5146 90.3627 13.7699 89.1074 15.3184 89.1074H29.3373C30.8858 89.1074 32.1411 90.3627 32.1411 91.9112V124.155M12.5146 124.155H32.1411M12.5146 124.155V154.529M12.5146 154.529V170.884C12.5146 172.433 13.7699 173.688 15.3184 173.688H35.8794M35.8794 154.529H66.7209C68.2694 154.529 69.5247 155.784 69.5247 157.333V170.884C69.5247 172.433 68.2694 173.688 66.7209 173.688H35.8794M35.8794 154.529V173.688" stroke="#F1F1F4" stroke-width="2.33648" stroke-linejoin="round"/>
<path d="M18.3443 141.78V136.771L17.0359 137.958V136.724L18.2976 135.575H19.3724V141.78H18.3443ZM20.844 141.78V140.565H22.059V141.78H20.844ZM24.5928 140.836H27.5087V141.78H23.1722V140.836L25.6769 138.603C26.138 138.185 26.3685 137.786 26.3685 137.406C26.3685 137.095 26.2657 136.849 26.0601 136.668C25.8607 136.487 25.599 136.397 25.275 136.397C24.9697 136.397 24.7081 136.478 24.49 136.64C24.2781 136.796 24.1348 137.029 24.0601 137.341H22.9946C23.1068 136.768 23.3591 136.31 23.7517 135.967C24.1442 135.624 24.6364 135.453 25.2283 135.453C25.8763 135.453 26.3997 135.631 26.7984 135.986C27.1972 136.335 27.3966 136.802 27.3966 137.388C27.3966 137.998 27.0913 138.584 26.4807 139.145L24.5928 140.836Z" fill="white"/>
<path d="M24.5038 162.894H25.5319V164.557H26.5599V165.501H25.5319V166.81H24.5038V165.501H21.2327V164.557L24.2328 160.604H25.4291L22.4197 164.557H24.5038V162.894Z" fill="white"/>
<path d="M49.1615 162.894H50.1896V164.557H51.2176V165.501H50.1896V166.81H49.1615V165.501H45.8905V164.557L48.8905 160.604H50.0868L47.0774 164.557H49.1615V162.894ZM52.0683 166.81V165.595H53.2833V166.81H52.0683ZM55.7611 163.193H56.4994C56.8608 163.193 57.1443 163.118 57.3499 162.968C57.5617 162.813 57.6676 162.595 57.6676 162.314C57.6676 162.046 57.5617 161.831 57.3499 161.669C57.1443 161.507 56.8639 161.426 56.5087 161.426C55.8795 161.426 55.462 161.697 55.2564 162.239H54.2097C54.3405 161.66 54.6146 161.224 55.0321 160.931C55.4558 160.632 55.948 160.482 56.5087 160.482C57.1692 160.482 57.6988 160.663 58.0976 161.024C58.4963 161.38 58.6957 161.81 58.6957 162.314C58.6957 162.875 58.4465 163.324 57.948 163.66C58.4589 164.009 58.7144 164.476 58.7144 165.062C58.7144 165.585 58.5088 166.028 58.0976 166.389C57.6926 166.75 57.1536 166.931 56.4807 166.931C55.9137 166.931 55.4246 166.788 55.0134 166.501C54.6022 166.208 54.3249 165.769 54.1816 165.183H55.219C55.4309 165.719 55.8545 165.987 56.4901 165.987C56.8452 165.987 57.1318 165.903 57.3499 165.735C57.5742 165.567 57.6863 165.345 57.6863 165.071C57.6863 164.785 57.5804 164.557 57.3686 164.389C57.163 164.221 56.8732 164.137 56.4994 164.137H55.7611V163.193Z" fill="white"/>
<path d="M19.5034 110.061V105.051L18.195 106.238V105.004L19.4567 103.855H20.5315V110.061H19.5034ZM22.0031 110.061V108.846H23.2181V110.061H22.0031ZM24.8792 110.061V105.051L23.5707 106.238V105.004L24.8324 103.855H25.9072V110.061H24.8792Z" fill="white"/>
<path d="M56.49 129.333H55.6489V127.959H50.7984V129.333H49.9573V127.174H50.5647C51.0507 126.713 51.2937 125.837 51.2937 124.548V121.753H55.6489V127.174H56.49V129.333ZM52.1349 122.538V124.538C52.1349 125.71 51.9542 126.588 51.5928 127.174H54.8078V122.538H52.1349ZM61.2305 125.809C61.6293 126.015 61.8287 126.345 61.8287 126.8C61.8287 127.137 61.7103 127.414 61.4735 127.632C61.243 127.85 60.9034 127.959 60.4548 127.959H57.8473V123.66H60.4174C60.866 123.66 61.2056 123.769 61.4361 123.987C61.6729 124.199 61.7913 124.476 61.7913 124.819C61.7913 125.267 61.6044 125.598 61.2305 125.809ZM58.6511 127.249H60.3707C60.8069 127.249 61.0249 127.068 61.0249 126.707C61.0249 126.345 60.8069 126.165 60.3707 126.165H58.6511V127.249ZM58.6511 125.454H60.3333C60.7695 125.454 60.9875 125.274 60.9875 124.912C60.9875 124.551 60.7695 124.37 60.3333 124.37H58.6511V125.454ZM65.0125 123.538C65.6542 123.538 66.1901 123.756 66.62 124.193C67.0499 124.622 67.2649 125.161 67.2649 125.809C67.2649 126.457 67.0499 126.999 66.62 127.436C66.1901 127.866 65.6542 128.08 65.0125 128.08C64.3645 128.08 63.8256 127.866 63.3956 127.436C62.972 126.999 62.7601 126.457 62.7601 125.809C62.7601 125.161 62.972 124.622 63.3956 124.193C63.8256 123.756 64.3645 123.538 65.0125 123.538ZM63.9751 126.894C64.2492 127.186 64.595 127.333 65.0125 127.333C65.4299 127.333 65.7757 127.186 66.0499 126.894C66.324 126.601 66.4611 126.239 66.4611 125.809C66.4611 125.373 66.324 125.012 66.0499 124.725C65.782 124.432 65.4362 124.286 65.0125 124.286C64.5888 124.286 64.2399 124.432 63.9657 124.725C63.6978 125.012 63.5639 125.373 63.5639 125.809C63.5639 126.239 63.7009 126.601 63.9751 126.894ZM69.2839 129.866H68.4801V123.66H69.2839V124.127C69.639 123.735 70.1219 123.538 70.7325 123.538C71.4116 123.538 71.9443 123.76 72.3306 124.202C72.7169 124.644 72.9101 125.18 72.9101 125.809C72.9101 126.439 72.7169 126.975 72.3306 127.417C71.9443 127.859 71.4116 128.08 70.7325 128.08C70.1219 128.08 69.639 127.884 69.2839 127.492V129.866ZM69.6764 124.688C69.396 124.95 69.2558 125.323 69.2558 125.809C69.2558 126.295 69.396 126.672 69.6764 126.94C69.963 127.202 70.3057 127.333 70.7044 127.333C71.1094 127.333 71.4428 127.186 71.7045 126.894C71.9724 126.594 72.1063 126.233 72.1063 125.809C72.1063 125.386 71.9724 125.027 71.7045 124.735C71.4428 124.436 71.1094 124.286 70.7044 124.286C70.3057 124.286 69.963 124.42 69.6764 124.688Z" fill="#585858"/>
<path d="M89.618 199.064C89.618 200.613 90.8733 201.868 92.4218 201.868H106.908C108.456 201.868 109.712 200.613 109.712 199.064V167.288H89.618V199.064Z" fill="#00944A"/>
<path d="M109.712 133.176H89.618V167.288H109.712V133.176Z" fill="#262626"/>
<path d="M109.712 100.465H89.618V133.176H109.712V100.465Z" fill="#262626"/>
<path d="M96.1602 78.502L87.2815 97.6611L88.4159 98.3418C89.1617 98.7892 89.618 99.5952 89.618 100.465H109.712V89.3202C109.712 88.3984 109.259 87.5354 108.5 87.0121L96.1602 78.502Z" fill="#262626"/>
<path d="M56.9073 84.1887L87.2815 97.6611L96.1602 78.502L65.786 65.0296L56.9073 84.1887Z" fill="#262626"/>
<path d="M29.3369 71.9599L56.9073 84.1887L65.786 65.0296L40.7366 53.919C39.3376 53.2985 37.6994 53.9145 37.0559 55.3031L29.3369 71.9599Z" fill="#262626"/>
<path d="M29.3369 71.9599L87.2815 97.6611M29.3369 71.9599L37.0559 55.3031C37.6994 53.9145 39.3376 53.2985 40.7366 53.919L65.786 65.0296M29.3369 71.9599L56.9073 84.1887M87.2815 97.6611L96.1602 78.502M87.2815 97.6611L88.4159 98.3418C89.1617 98.7892 89.618 99.5952 89.618 100.465V100.465M87.2815 97.6611L56.9073 84.1887M96.1602 78.502L108.5 87.0121C109.259 87.5354 109.712 88.3984 109.712 89.3202V100.465M96.1602 78.502L65.786 65.0296M89.618 100.465H109.712M89.618 100.465V133.176M109.712 100.465V133.176M89.618 133.176H109.712M89.618 133.176V167.288M109.712 133.176V167.288M89.618 167.288V199.064C89.618 200.613 90.8733 201.868 92.4218 201.868H106.908C108.456 201.868 109.712 200.613 109.712 199.064V167.288M89.618 167.288H109.712M65.786 65.0296L56.9073 84.1887" stroke="#F1F1F4" stroke-width="2.33648" stroke-linejoin="round"/>
<path d="M95.2332 116.573H95.9715C96.3329 116.573 96.6164 116.498 96.822 116.348C97.0339 116.193 97.1398 115.974 97.1398 115.694C97.1398 115.426 97.0339 115.211 96.822 115.049C96.6164 114.887 96.336 114.806 95.9809 114.806C95.3516 114.806 94.9341 115.077 94.7285 115.619H93.6818C93.8126 115.04 94.0868 114.604 94.5042 114.311C94.9279 114.012 95.4201 113.862 95.9809 113.862C96.6413 113.862 97.1709 114.043 97.5697 114.404C97.9684 114.759 98.1678 115.189 98.1678 115.694C98.1678 116.255 97.9186 116.703 97.4202 117.04C97.9311 117.389 98.1865 117.856 98.1865 118.442C98.1865 118.965 97.9809 119.408 97.5697 119.769C97.1647 120.13 96.6258 120.311 95.9528 120.311C95.3859 120.311 94.8968 120.168 94.4855 119.881C94.0743 119.588 93.7971 119.149 93.6538 118.563H94.6911C94.903 119.099 95.3267 119.367 95.9622 119.367C96.3173 119.367 96.6039 119.283 96.822 119.115C97.0463 118.946 97.1585 118.725 97.1585 118.451C97.1585 118.165 97.0525 117.937 96.8407 117.769C96.6351 117.601 96.3454 117.517 95.9715 117.517H95.2332V116.573ZM99.3074 120.189V118.974H100.522V120.189H99.3074ZM103 116.573H103.738C104.1 116.573 104.383 116.498 104.589 116.348C104.801 116.193 104.907 115.974 104.907 115.694C104.907 115.426 104.801 115.211 104.589 115.049C104.383 114.887 104.103 114.806 103.748 114.806C103.119 114.806 102.701 115.077 102.495 115.619H101.449C101.58 115.04 101.854 114.604 102.271 114.311C102.695 114.012 103.187 113.862 103.748 113.862C104.408 113.862 104.938 114.043 105.337 114.404C105.735 114.759 105.935 115.189 105.935 115.694C105.935 116.255 105.686 116.703 105.187 117.04C105.698 117.389 105.953 117.856 105.953 118.442C105.953 118.965 105.748 119.408 105.337 119.769C104.932 120.13 104.393 120.311 103.72 120.311C103.153 120.311 102.664 120.168 102.252 119.881C101.841 119.588 101.564 119.149 101.421 118.563H102.458C102.67 119.099 103.094 119.367 103.729 119.367C104.084 119.367 104.371 119.283 104.589 119.115C104.813 118.946 104.925 118.725 104.925 118.451C104.925 118.165 104.82 117.937 104.608 117.769C104.402 117.601 104.112 117.517 103.738 117.517H103V116.573Z" fill="white"/>
<path d="M71.4953 81.1751H72.2336C72.595 81.1751 72.8785 81.1004 73.0841 80.9508C73.2959 80.7951 73.4019 80.577 73.4019 80.2966C73.4019 80.0287 73.2959 79.8137 73.0841 79.6517C72.8785 79.4897 72.5981 79.4087 72.243 79.4087C71.6137 79.4087 71.1962 79.6798 70.9906 80.2218H69.9439C70.0747 79.6424 70.3489 79.2063 70.7663 78.9134C71.19 78.6143 71.6822 78.4648 72.243 78.4648C72.9034 78.4648 73.433 78.6455 73.8318 79.0069C74.2305 79.362 74.4299 79.7919 74.4299 80.2966C74.4299 80.8574 74.1807 81.306 73.6822 81.6424C74.1932 81.9913 74.4486 82.4586 74.4486 83.0443C74.4486 83.5677 74.243 84.0101 73.8318 84.3714C73.4268 84.7328 72.8878 84.9135 72.2149 84.9135C71.648 84.9135 71.1589 84.7702 70.7476 84.4836C70.3364 84.1907 70.0591 83.7515 69.9158 83.1658H70.9532C71.1651 83.7016 71.5888 83.9696 72.2243 83.9696C72.5794 83.9696 72.866 83.8854 73.0841 83.7172C73.3084 83.549 73.4206 83.3278 73.4206 83.0537C73.4206 82.767 73.3146 82.5396 73.1028 82.3714C72.8972 82.2032 72.6075 82.1191 72.2336 82.1191H71.4953V81.1751ZM75.5695 84.792V83.577H76.7845V84.792H75.5695ZM79.3183 83.8481H82.2343V84.792H77.8978V83.8481L80.4025 81.6144C80.8635 81.1969 81.0941 80.7982 81.0941 80.4181C81.0941 80.1066 80.9913 79.8605 80.7856 79.6798C80.5863 79.4991 80.3246 79.4087 80.0006 79.4087C79.6953 79.4087 79.4336 79.4897 79.2155 79.6517C79.0037 79.8075 78.8604 80.0412 78.7856 80.3527H77.7202C77.8323 79.7795 78.0847 79.3215 78.4772 78.9788C78.8697 78.6362 79.362 78.4648 79.9539 78.4648C80.6018 78.4648 81.1252 78.6424 81.524 78.9975C81.9227 79.3464 82.1221 79.8137 82.1221 80.3994C82.1221 81.01 81.8168 81.5957 81.2062 82.1564L79.3183 83.8481Z" fill="white"/>
<path d="M43.5919 68.138H44.3302C44.6916 68.138 44.9751 68.0632 45.1807 67.9137C45.3926 67.7579 45.4985 67.5399 45.4985 67.2595C45.4985 66.9916 45.3926 66.7766 45.1807 66.6146C44.9751 66.4526 44.6947 66.3716 44.3396 66.3716C43.7103 66.3716 43.2928 66.6427 43.0872 67.1847H42.0405C42.1713 66.6053 42.4455 66.1691 42.8629 65.8763C43.2866 65.5772 43.7788 65.4277 44.3396 65.4277C45 65.4277 45.5296 65.6084 45.9284 65.9698C46.3272 66.3249 46.5265 66.7548 46.5265 67.2595C46.5265 67.8203 46.2773 68.2689 45.7789 68.6053C46.2898 68.9542 46.5452 69.4215 46.5452 70.0072C46.5452 70.5306 46.3396 70.9729 45.9284 71.3343C45.5234 71.6957 44.9845 71.8764 44.3116 71.8764C43.7446 71.8764 43.2555 71.7331 42.8442 71.4465C42.433 71.1536 42.1558 70.7144 42.0125 70.1287H43.0499C43.2617 70.6645 43.6854 70.9324 44.3209 70.9324C44.676 70.9324 44.9626 70.8483 45.1807 70.6801C45.405 70.5119 45.5172 70.2907 45.5172 70.0165C45.5172 69.7299 45.4113 69.5025 45.1994 69.3343C44.9938 69.1661 44.7041 69.082 44.3302 69.082H43.5919V68.138ZM47.6661 71.7549V70.5399H48.8811V71.7549H47.6661ZM50.5422 71.7549V66.7455L49.2338 67.9324V66.6987L50.4955 65.5492H51.5703V71.7549H50.5422Z" fill="white"/>
<path d="M97.5701 93.556H98.6261C98.8255 94.042 99.2367 94.285 99.8598 94.285C100.24 94.285 100.548 94.1759 100.785 93.9579C101.022 93.7336 101.14 93.4501 101.14 93.1074C101.14 92.7647 101.022 92.4843 100.785 92.2663C100.548 92.042 100.24 91.9298 99.8598 91.9298C99.4112 91.9298 99.0311 92.0762 98.7196 92.3691H97.757L98.1028 88.9017H101.907V89.8457H98.9813L98.8504 91.2289C99.162 91.0669 99.5358 90.9859 99.972 90.9859C100.558 90.9859 101.072 91.1759 101.514 91.556C101.956 91.936 102.178 92.4563 102.178 93.1167C102.178 93.6962 101.963 94.1946 101.533 94.6121C101.109 95.0233 100.558 95.2289 99.8785 95.2289C99.2804 95.2289 98.7726 95.0763 98.3551 94.771C97.9439 94.4657 97.6822 94.0607 97.5701 93.556Z" fill="white"/>
<path d="M94.8658 183.816H95.6041C95.9655 183.816 96.249 183.741 96.4546 183.591C96.6664 183.436 96.7723 183.218 96.7723 182.937C96.7723 182.669 96.6664 182.454 96.4546 182.292C96.249 182.13 95.9686 182.049 95.6135 182.049C94.9842 182.049 94.5667 182.32 94.3611 182.862H93.3144C93.4452 182.283 93.7194 181.847 94.1368 181.554C94.5605 181.255 95.0527 181.105 95.6135 181.105C96.2739 181.105 96.8035 181.286 97.2023 181.647C97.601 182.003 97.8004 182.433 97.8004 182.937C97.8004 183.498 97.5512 183.947 97.0527 184.283C97.5636 184.632 97.8191 185.099 97.8191 185.685C97.8191 186.208 97.6135 186.651 97.2023 187.012C96.7973 187.373 96.2583 187.554 95.5854 187.554C95.0184 187.554 94.5293 187.411 94.1181 187.124C93.7069 186.831 93.4296 186.392 93.2863 185.806H94.3237C94.5356 186.342 94.9592 186.61 95.5948 186.61C95.9499 186.61 96.2365 186.526 96.4546 186.358C96.6789 186.19 96.791 185.968 96.791 185.694C96.791 185.408 96.6851 185.18 96.4733 185.012C96.2677 184.844 95.9779 184.76 95.6041 184.76H94.8658V183.816ZM98.94 187.433V186.218H100.155V187.433H98.94ZM104.33 183.517H105.358V185.18H106.386V186.124H105.358V187.433H104.33V186.124H101.058V185.18L104.059 181.227H105.255L102.245 185.18H104.33V183.517Z" fill="white" fill-opacity="0.9"/>
<path d="M99.2093 152.343H102.125V153.287H97.7887V152.343L100.293 150.11C100.754 149.692 100.985 149.293 100.985 148.913C100.985 148.602 100.882 148.356 100.677 148.175C100.477 147.994 100.216 147.904 99.8915 147.904C99.5862 147.904 99.3245 147.985 99.1065 148.147C98.8946 148.303 98.7513 148.536 98.6766 148.848H97.6111C97.7233 148.275 97.9756 147.817 98.3681 147.474C98.7607 147.131 99.2529 146.96 99.8448 146.96C100.493 146.96 101.016 147.138 101.415 147.493C101.814 147.842 102.013 148.309 102.013 148.895C102.013 149.505 101.708 150.091 101.097 150.652L99.2093 152.343Z" fill="white"/>
<path d="M37.0308 44.0711L36.0012 44.9877L35.1368 44.5925L39.6778 40.5275L40.5421 40.9228L40.438 47.0164L39.543 46.6072L39.5628 45.2289L37.0308 44.0711ZM39.5795 44.3024L39.6228 41.7602L37.7206 43.4524L39.5795 44.3024ZM45.3711 44.9529L46.182 45.3237L44.5485 48.896L43.7377 48.5253L44.3988 47.0795L42.494 46.2085L41.8329 47.6543L41.0221 47.2835L42.6556 43.7112L43.4664 44.082L42.8193 45.4971L44.7241 46.3681L45.3711 44.9529ZM48.8687 46.432C49.3991 46.6745 49.7678 46.9941 49.9748 47.3909C50.1818 47.7877 50.1827 48.2105 49.9775 48.6593L48.9492 50.9083L48.1383 50.5375L48.2887 50.2086C47.8878 50.3705 47.4222 50.3303 46.8919 50.0878C46.4533 49.8872 46.1506 49.6255 45.9838 49.3026C45.8244 48.9769 45.8333 48.6203 46.0105 48.2327C46.1388 47.9522 46.3216 47.7614 46.559 47.6603C46.8038 47.5565 47.0561 47.5238 47.3159 47.5625C47.5808 47.6034 47.8637 47.6927 48.1646 47.8303L49.1667 48.2885C49.2716 48.059 49.2619 47.8511 49.1374 47.6647C49.0153 47.4732 48.8141 47.3134 48.5336 47.1851C48.0491 46.9636 47.6757 46.9778 47.4134 47.2279L46.549 46.8326C46.8282 46.4917 47.1763 46.2901 47.5932 46.2279C48.0152 46.1681 48.4403 46.2361 48.8687 46.432ZM48.7819 49.13L48.8694 48.9387L47.8596 48.477C47.319 48.2298 46.973 48.272 46.8214 48.6035C46.7468 48.7667 46.7548 48.9245 46.8454 49.0769C46.9383 49.2242 47.1021 49.3515 47.3367 49.4588C47.6529 49.6034 47.9431 49.6497 48.2072 49.5979C48.4738 49.5409 48.6653 49.385 48.7819 49.13ZM51.6722 47.8341L55.1374 49.4186L53.5039 52.991L52.6931 52.6202L54.0013 49.7593L52.1577 48.9163L50.8495 51.7772L50.0387 51.4064L51.6722 47.8341ZM57.8256 50.5276C58.3559 50.7701 58.7246 51.0897 58.9316 51.4865C59.1387 51.8833 59.1396 52.3061 58.9344 52.7549L57.906 55.0038L57.0951 54.6331L57.2456 54.3041C56.8447 54.4661 56.3791 54.4259 55.8487 54.1834C55.4101 53.9828 55.1074 53.7211 54.9406 53.3982C54.7812 53.0725 54.7902 52.7159 54.9674 52.3283C55.0956 52.0478 55.2785 51.857 55.5158 51.7559C55.7606 51.652 56.0129 51.6194 56.2727 51.6581C56.5376 51.699 56.8205 51.7883 57.1214 51.9259L58.1235 52.3841C58.2284 52.1546 58.2187 51.9467 58.0943 51.7603C57.9722 51.5688 57.7709 51.409 57.4904 51.2807C57.0059 51.0592 56.6326 51.0734 56.3703 51.3235L55.5059 50.9282C55.7851 50.5873 56.1331 50.3857 56.55 50.3235C56.972 50.2637 57.3972 50.3317 57.8256 50.5276ZM57.7387 53.2256L57.8262 53.0343L56.8165 52.5726C56.2759 52.3254 55.9298 52.3676 55.7782 52.6991C55.7036 52.8623 55.7116 53.0201 55.8022 53.1725C55.8952 53.3198 56.059 53.4471 56.2935 53.5544C56.6097 53.6989 56.8999 53.7453 57.1641 53.6935C57.4306 53.6365 57.6222 53.4805 57.7387 53.2256ZM63.5106 54.5884L62.6615 54.2002C62.6127 53.8079 62.392 53.522 61.9993 53.3424C61.6831 53.1979 61.3741 53.186 61.0721 53.3069C60.7753 53.4302 60.5523 53.655 60.403 53.9814C60.2538 54.3078 60.2285 54.6261 60.3271 54.9363C60.4331 55.2438 60.6443 55.4698 60.9604 55.6144C61.3531 55.7939 61.7138 55.7738 62.0424 55.5541L62.8915 55.9424C62.5886 56.254 62.2315 56.4484 61.8202 56.5254C61.4163 56.5997 61.0154 56.5459 60.6176 56.364C60.0822 56.1192 59.715 55.7355 59.5162 55.2129C59.3197 54.6853 59.345 54.1512 59.5922 53.6106C59.837 53.0751 60.2221 52.7117 60.7474 52.5203C61.2751 52.3238 61.8066 52.3479 62.3421 52.5928C62.7398 52.7747 63.0416 53.0452 63.2473 53.4044C63.4604 53.7608 63.5482 54.1555 63.5106 54.5884ZM64.9244 53.8938L65.7353 54.2646L65.0637 55.7333L67.3187 54.9886L68.4279 55.4958L65.6588 56.3939L66.7944 59.0681L65.6852 58.561L64.7349 56.4523L64.1018 57.8369L63.2909 57.4661L64.9244 53.8938ZM70.7093 56.4188C71.2499 56.6659 71.6184 57.0534 71.8149 57.581C72.0189 58.1059 71.9973 58.6386 71.7501 59.1792C71.5052 59.7146 71.1164 60.0795 70.5837 60.2736C70.0584 60.4651 69.5254 60.4372 68.9849 60.19C68.4392 59.9405 68.0644 59.5533 67.8605 59.0284C67.6616 58.5059 67.6858 57.9743 67.933 57.4337C68.1801 56.8932 68.5664 56.5272 69.0917 56.3358C69.6244 56.1416 70.1636 56.1693 70.7093 56.4188ZM69.3277 59.4403C69.6489 59.5872 69.9605 59.6002 70.2625 59.4793C70.5644 59.3584 70.79 59.1348 70.9392 58.8084C71.0908 58.4769 71.1136 58.1574 71.0075 57.85C70.9015 57.5425 70.6878 57.3153 70.3665 57.1684C70.0503 57.0238 69.7376 57.0134 69.4282 57.1371C69.1212 57.2557 68.893 57.4781 68.7438 57.8045C68.5969 58.1258 68.5779 58.4439 68.6867 58.7588C68.7978 59.0686 69.0115 59.2958 69.3277 59.4403ZM73.8619 61.5137C74.2495 61.6909 74.5895 61.6891 74.8818 61.5083L75.7615 61.9106C75.468 62.2018 75.119 62.3783 74.7147 62.44C74.3103 62.5018 73.9118 62.4429 73.5191 62.2633C72.9735 62.0138 72.6012 61.6278 72.4024 61.1052C72.2035 60.5827 72.2289 60.0486 72.4784 59.5029C72.7232 58.9675 73.1032 58.6017 73.6183 58.4056C74.1357 58.2044 74.6647 58.2274 75.2053 58.4746C75.7306 58.7148 76.0824 59.0915 76.2609 59.6047C76.4417 60.1128 76.412 60.6295 76.1718 61.1548C76.0972 61.318 76.0431 61.4227 76.0096 61.4691L73.1869 60.1784C73.1162 60.4543 73.1416 60.7157 73.2631 60.9624C73.392 61.2063 73.5916 61.3901 73.8619 61.5137ZM74.873 59.2013C74.6078 59.0801 74.3471 59.0502 74.0908 59.1118C73.8419 59.1707 73.6448 59.3118 73.4995 59.5352L75.4654 60.4341C75.5366 60.1707 75.5181 59.9279 75.41 59.7058C75.307 59.4861 75.128 59.3179 74.873 59.2013ZM83.233 66.5848L77.9625 64.1749L79.596 60.6025L80.4068 60.9733L79.0987 63.8342L80.5138 64.4813L81.822 61.6204L82.6329 61.9911L81.3247 64.8521L82.7475 65.5027L84.0557 62.6417L84.8665 63.0125L83.233 66.5848ZM87.7639 64.2171C88.3045 64.4643 88.673 64.8517 88.8695 65.3794C89.0735 65.9042 89.0519 66.437 88.8047 66.9775C88.5598 67.513 88.171 67.8778 87.6383 68.072C87.113 68.2634 86.58 68.2355 86.0395 67.9884C85.4938 67.7388 85.119 67.3516 84.9151 66.8268C84.7162 66.3042 84.7404 65.7727 84.9875 65.2321C85.2347 64.6915 85.621 64.3255 86.1463 64.1341C86.679 63.94 87.2182 63.9676 87.7639 64.2171ZM86.3823 67.2387C86.7035 67.3856 87.0151 67.3986 87.3171 67.2777C87.619 67.1568 87.8446 66.9331 87.9938 66.6068C88.1454 66.2753 88.1682 65.9558 88.0621 65.6483C87.9561 65.3409 87.7424 65.1137 87.4211 64.9668C87.1049 64.8222 86.7922 64.8118 86.4828 64.9354C86.1758 65.054 85.9476 65.2765 85.7984 65.6029C85.6515 65.9242 85.6324 66.2422 85.7413 66.5571C85.8524 66.8669 86.0661 67.0941 86.3823 67.2387ZM93.4514 68.2791L92.6023 67.8908C92.5535 67.4986 92.3328 67.2127 91.9401 67.0331C91.6239 66.8885 91.3148 66.8767 91.0129 66.9976C90.7161 67.1209 90.4931 67.3457 90.3438 67.6721C90.1946 67.9984 90.1693 68.3167 90.2679 68.627C90.3739 68.9344 90.585 69.1605 90.9012 69.305C91.2939 69.4846 91.6545 69.4645 91.9831 69.2448L92.8322 69.6331C92.5294 69.9447 92.1723 70.1391 91.761 70.2161C91.3571 70.2904 90.9562 70.2366 90.5584 70.0547C90.023 69.8098 89.6558 69.4261 89.457 68.9036C89.2605 68.376 89.2858 67.8419 89.533 67.3013C89.7778 66.7658 90.1629 66.4024 90.6882 66.211C91.2158 66.0144 91.7474 66.0386 92.2829 66.2835C92.6806 66.4653 92.9824 66.7359 93.1881 67.0951C93.4012 67.4515 93.489 67.8462 93.4514 68.2791ZM97.7468 70.2432L96.8977 69.8549C96.8489 69.4627 96.6282 69.1768 96.2355 68.9972C95.9193 68.8526 95.6102 68.8408 95.3083 68.9617C95.0115 69.085 94.7885 69.3098 94.6392 69.6362C94.49 69.9625 94.4647 70.2809 94.5633 70.5911C94.6693 70.8985 94.8804 71.1246 95.1966 71.2691C95.5893 71.4487 95.9499 71.4286 96.2785 71.2089L97.1276 71.5972C96.8248 71.9088 96.4677 72.1032 96.0564 72.1802C95.6525 72.2545 95.2516 72.2007 94.8538 72.0188C94.3184 71.7739 93.9512 71.3903 93.7524 70.8677C93.5559 70.3401 93.5812 69.806 93.8284 69.2654C94.0732 68.7299 94.4583 68.3665 94.9836 68.1751C95.5112 67.9786 96.0428 68.0027 96.5783 68.2476C96.976 68.4295 97.2778 68.7 97.4835 69.0592C97.6966 69.4156 97.7844 69.8103 97.7468 70.2432ZM99.5073 73.2402C99.8949 73.4175 100.235 73.4157 100.527 73.2349L101.407 73.6371C101.113 73.9284 100.764 74.1049 100.36 74.1666C99.9557 74.2284 99.5572 74.1695 99.1645 73.9899C98.6189 73.7404 98.2466 73.3544 98.0478 72.8318C97.8489 72.3093 97.8742 71.7752 98.1238 71.2295C98.3686 70.694 98.7486 70.3283 99.2637 70.1322C99.7811 69.931 100.31 69.954 100.851 70.2012C101.376 70.4414 101.728 70.8181 101.906 71.3313C102.087 71.8394 102.057 72.3561 101.817 72.8814C101.743 73.0445 101.688 73.1493 101.655 73.1956L98.8323 71.9049C98.7616 72.1809 98.787 72.4423 98.9085 72.689C99.0374 72.9329 99.237 73.1167 99.5073 73.2402ZM100.518 70.9279C100.253 70.8066 99.9925 70.7768 99.7362 70.8384C99.4873 70.8973 99.2902 71.0384 99.1449 71.2617L101.111 72.1607C101.182 71.8972 101.163 71.6545 101.055 71.4324C100.952 71.2127 100.773 71.0445 100.518 70.9279Z" fill="#A0A0A0"/>
<path d="M5.91589 179.66L2.07191 181.393V180.4L4.82242 179.164L2.07191 177.936L2.07191 176.985L6.21028 178.852C6.81029 179.127 7.18039 179.321 7.32058 179.433C7.55049 179.618 7.67946 179.884 7.7075 180.232C7.7131 180.305 7.71591 180.386 7.71591 180.476V180.955H6.93366V180.61C6.93366 180.42 6.88599 180.268 6.79066 180.156C6.69534 180.038 6.5187 179.923 6.26075 179.811L5.91589 179.66ZM2.07191 175.981V172.726H6V173.617H2.85417V175.089H3.72053C4.01773 175.089 4.28129 175.106 4.5112 175.14C4.7355 175.168 4.97102 175.23 5.21775 175.325C5.46448 175.415 5.65794 175.563 5.79813 175.771C5.93271 175.978 6 176.239 6 176.553V176.881H5.16728V176.654C5.16728 176.497 5.12522 176.371 5.04111 176.275C4.95139 176.175 4.82242 176.107 4.65419 176.074C4.48596 176.034 4.33736 176.009 4.20839 175.998C4.07942 175.987 3.91119 175.981 3.70371 175.981H2.07191ZM6 171.608H4.90653V170.515H6V171.608ZM6 160.296V167.496H0.414885L0.414885 166.571H5.15046V164.359H0.414885L0.414885 163.434H5.15046V161.222H0.414885L0.414885 160.296H6ZM5.28504 157.129C5.28504 156.703 5.14205 156.394 4.85606 156.204V155.236C5.24298 155.382 5.54859 155.626 5.77289 155.968C5.9972 156.31 6.10935 156.697 6.10935 157.129C6.10935 157.729 5.91308 158.228 5.52055 158.626C5.12803 159.024 4.63176 159.223 4.03175 159.223C3.44296 159.223 2.9523 159.03 2.55977 158.643C2.16164 158.256 1.96257 157.765 1.96257 157.171C1.96257 156.593 2.15883 156.117 2.55136 155.741C2.93828 155.365 3.42053 155.177 3.99811 155.177C4.17755 155.177 4.29531 155.183 4.35138 155.194L4.35138 158.298C4.63176 158.248 4.85886 158.116 5.0327 157.903C5.20092 157.684 5.28504 157.426 5.28504 157.129ZM2.76164 157.171C2.76164 157.463 2.84295 157.712 3.00557 157.92C3.16258 158.121 3.37286 158.242 3.63642 158.281V156.12C3.36726 156.164 3.15417 156.282 2.99716 156.473C2.84015 156.658 2.76164 156.891 2.76164 157.171ZM4.02334 150.886C4.214 150.589 4.49998 150.44 4.88129 150.44C5.20092 150.44 5.46728 150.552 5.68037 150.777C5.89346 151.001 6 151.321 6 151.736V154.141H2.07191L2.07191 151.778C2.07191 151.357 2.17846 151.037 2.39154 150.819C2.59902 150.594 2.86538 150.482 3.19062 150.482C3.5495 150.482 3.82708 150.617 4.02334 150.886ZM5.25139 153.25V151.853C5.25139 151.506 5.1084 151.332 4.82242 151.332C4.53643 151.332 4.39344 151.506 4.39344 151.853V153.25H5.25139ZM3.67006 153.25V151.895C3.67006 151.548 3.52707 151.374 3.24109 151.374C2.96071 151.374 2.82052 151.548 2.82052 151.895V153.25H3.67006ZM3.37567 149.595H2.07191V148.704H3.2495C3.49062 148.704 3.66165 148.634 3.76259 148.493C3.86352 148.348 3.91399 148.106 3.91399 147.77C3.91399 147.501 3.88035 147.159 3.81306 146.744H2.07191V145.852H6V146.744H4.63737C4.70466 147.148 4.7383 147.492 4.7383 147.778C4.7383 148.99 4.28409 149.595 3.37567 149.595ZM5.28504 142.721C5.28504 142.295 5.14205 141.987 4.85606 141.796L4.85606 140.829C5.24298 140.974 5.54859 141.218 5.77289 141.56C5.9972 141.903 6.10935 142.289 6.10935 142.721C6.10935 143.321 5.91308 143.82 5.52055 144.218C5.12803 144.617 4.63176 144.816 4.03175 144.816C3.44296 144.816 2.9523 144.622 2.55977 144.235C2.16164 143.848 1.96257 143.358 1.96257 142.763C1.96257 142.186 2.15883 141.709 2.55136 141.333C2.93828 140.958 3.42053 140.77 3.99811 140.77C4.17755 140.77 4.29531 140.775 4.35138 140.787L4.35138 143.89C4.63176 143.84 4.85886 143.708 5.0327 143.495C5.20092 143.276 5.28504 143.018 5.28504 142.721ZM2.76164 142.763C2.76164 143.055 2.84295 143.304 3.00557 143.512C3.16258 143.714 3.37286 143.834 3.63642 143.874V141.712C3.36726 141.757 3.15417 141.874 2.99716 142.065C2.84015 142.25 2.76164 142.483 2.76164 142.763ZM2.07191 136.748V135.856H6V136.748H4.41026V138.842H6V139.734H2.07191V138.842H3.62801L3.62801 136.748H2.07191ZM2.07191 134.575V133.683H3.68689L2.07191 131.942V130.723L4.04016 132.868L6 130.723V131.942L4.47755 133.683H6V134.575H2.07191ZM1.96257 128.264C1.96257 127.67 2.16164 127.173 2.55977 126.775C2.9523 126.372 3.44576 126.17 4.04016 126.17C4.62895 126.17 5.12242 126.372 5.52055 126.775C5.91308 127.173 6.10935 127.67 6.10935 128.264C6.10935 128.864 5.91308 129.366 5.52055 129.77C5.12803 130.168 4.63456 130.367 4.04016 130.367C3.44576 130.367 2.9523 130.168 2.55977 129.77C2.16164 129.366 1.96257 128.864 1.96257 128.264ZM5.28504 128.264C5.28504 127.911 5.16728 127.622 4.93176 127.398C4.69625 127.173 4.39905 127.061 4.04016 127.061C3.67567 127.061 3.37567 127.173 3.14015 127.398C2.90463 127.622 2.78688 127.911 2.78688 128.264C2.78688 128.612 2.90744 128.901 3.14856 129.13C3.38408 129.36 3.68128 129.475 4.04016 129.475C4.39344 129.475 4.69064 129.36 4.93176 129.13C5.16728 128.901 5.28504 128.612 5.28504 128.264Z" fill="#A0A0A0"/>
<path d="M119.928 100.707V104.518H116V103.626H119.146V101.599H116V100.707H119.928ZM114.284 106.692V105.8H119.928V106.692H119.566C119.88 106.989 120.037 107.401 120.037 107.928C120.037 108.539 119.833 109.024 119.423 109.383C119.02 109.748 118.535 109.93 117.968 109.93C117.396 109.93 116.906 109.748 116.496 109.383C116.093 109.024 115.891 108.539 115.891 107.928C115.891 107.401 116.048 106.989 116.362 106.692H114.284ZM118.885 107.011C118.672 106.776 118.366 106.658 117.968 106.658C117.57 106.658 117.262 106.776 117.043 107.011C116.824 107.252 116.715 107.538 116.715 107.869C116.715 108.211 116.836 108.492 117.077 108.71C117.323 108.929 117.621 109.038 117.968 109.038C118.31 109.038 118.602 108.929 118.843 108.71C119.09 108.492 119.213 108.211 119.213 107.869C119.213 107.538 119.104 107.252 118.885 107.011ZM116 110.593H117.093V111.687H116V110.593ZM120.845 117.262C120.845 116.701 120.649 116.236 120.256 115.866C119.869 115.496 119.381 115.311 118.793 115.311C118.204 115.311 117.713 115.496 117.321 115.866C116.934 116.236 116.74 116.701 116.74 117.262C116.74 117.873 116.981 118.361 117.464 118.726V119.744C116.976 119.514 116.592 119.186 116.311 118.759C116.031 118.333 115.891 117.834 115.891 117.262C115.891 116.444 116.165 115.759 116.715 115.21C117.27 114.66 117.963 114.386 118.793 114.386C119.622 114.386 120.312 114.66 120.862 115.21C121.417 115.759 121.694 116.444 121.694 117.262C121.694 117.829 121.551 118.325 121.265 118.751C120.985 119.183 120.601 119.514 120.113 119.744V118.726C120.601 118.361 120.845 117.873 120.845 117.262ZM120.037 122.477C120.037 123.072 119.838 123.568 119.44 123.966C119.048 124.37 118.554 124.572 117.96 124.572C117.371 124.572 116.878 124.37 116.479 123.966C116.087 123.568 115.891 123.072 115.891 122.477C115.891 121.877 116.087 121.375 116.479 120.972C116.872 120.574 117.365 120.374 117.96 120.374C118.554 120.374 119.048 120.574 119.44 120.972C119.838 121.375 120.037 121.877 120.037 122.477ZM116.715 122.477C116.715 122.831 116.833 123.119 117.068 123.344C117.304 123.568 117.601 123.68 117.96 123.68C118.324 123.68 118.624 123.568 118.86 123.344C119.095 123.119 119.213 122.831 119.213 122.477C119.213 122.13 119.093 121.841 118.851 121.611C118.616 121.381 118.319 121.266 117.96 121.266C117.607 121.266 117.309 121.381 117.068 121.611C116.833 121.841 116.715 122.13 116.715 122.477ZM119.928 126.033V129.288H116V128.397H119.146V126.925H118.279C117.982 126.925 117.719 126.908 117.489 126.874C117.265 126.846 117.029 126.785 116.782 126.689C116.536 126.6 116.342 126.451 116.202 126.243C116.067 126.036 116 125.775 116 125.461V125.133H116.833V125.36C116.833 125.517 116.875 125.643 116.959 125.739C117.049 125.84 117.178 125.907 117.346 125.941C117.514 125.98 117.663 126.005 117.792 126.016C117.921 126.028 118.089 126.033 118.296 126.033H119.928ZM114.94 134.999V134.132H116V130.995H114.94V130.137H116.782V130.633C117.063 130.913 117.567 131.054 118.296 131.054H119.928V134.342H116.782V134.999H114.94ZM119.146 131.945H118.305C117.649 131.945 117.141 131.853 116.782 131.668V133.451H119.146V131.945ZM120.037 137.578C120.037 138.161 119.9 138.629 119.625 138.982C119.351 139.336 118.966 139.512 118.473 139.512H116V138.621H116.362C116.048 138.323 115.891 137.883 115.891 137.3C115.891 136.818 116.003 136.434 116.227 136.148C116.457 135.867 116.785 135.727 117.211 135.727C117.52 135.727 117.769 135.814 117.96 135.988C118.156 136.167 118.291 136.383 118.364 136.636C118.436 136.894 118.473 137.188 118.473 137.519V138.621C118.725 138.621 118.91 138.525 119.028 138.335C119.151 138.144 119.213 137.894 119.213 137.586C119.213 137.053 119.045 136.72 118.708 136.585V135.635C119.135 135.747 119.463 135.98 119.693 136.333C119.922 136.692 120.037 137.107 120.037 137.578ZM117.548 138.621H117.758V137.51C117.758 136.916 117.576 136.619 117.211 136.619C117.032 136.619 116.892 136.692 116.791 136.837C116.695 136.983 116.648 137.185 116.648 137.443C116.648 137.791 116.726 138.074 116.883 138.293C117.046 138.511 117.267 138.621 117.548 138.621ZM119.146 140.182H119.928V144.059H119.146V142.562H116V141.67H119.146V140.182ZM118.708 148.519V147.585C119.045 147.378 119.213 147.058 119.213 146.626C119.213 146.279 119.095 145.993 118.86 145.768C118.624 145.55 118.327 145.44 117.968 145.44C117.609 145.44 117.309 145.55 117.068 145.768C116.833 145.993 116.715 146.279 116.715 146.626C116.715 147.058 116.883 147.378 117.22 147.585V148.519C116.81 148.373 116.485 148.129 116.244 147.787C116.008 147.451 115.891 147.064 115.891 146.626C115.891 146.038 116.087 145.544 116.479 145.146C116.878 144.748 117.374 144.549 117.968 144.549C118.557 144.549 119.048 144.748 119.44 145.146C119.838 145.544 120.037 146.038 120.037 146.626C120.037 147.064 119.917 147.451 119.676 147.787C119.44 148.129 119.118 148.373 118.708 148.519ZM119.928 149.516V150.407H118.313L119.928 152.149V153.368L117.96 151.223L116 153.368V152.149L117.522 150.407H116V149.516H119.928ZM116 154.983V154.091H119.928V154.983H117.262L119.928 157.077V157.969H116V157.077H118.666L116 154.983ZM119.928 163.052L118.002 161.47L116 163.077V161.958L117.304 160.898L116 159.83V158.77L117.968 160.368L119.928 158.795V159.931L118.666 160.94L119.928 161.958V163.052ZM121.585 166.85L117.026 169.087L121.585 171.324V172.384H116V171.459H119.878L116 169.558V168.591L119.878 166.69H116V165.765H121.585V166.85ZM120.037 175.355C120.037 175.938 119.9 176.406 119.625 176.759C119.351 177.113 118.966 177.289 118.473 177.289H116V176.398H116.362C116.048 176.1 115.891 175.66 115.891 175.077C115.891 174.595 116.003 174.211 116.227 173.925C116.457 173.644 116.785 173.504 117.211 173.504C117.52 173.504 117.769 173.591 117.96 173.765C118.156 173.944 118.291 174.16 118.364 174.413C118.436 174.671 118.473 174.965 118.473 175.296V176.398C118.725 176.398 118.91 176.302 119.028 176.112C119.151 175.921 119.213 175.671 119.213 175.363C119.213 174.83 119.045 174.497 118.708 174.362V173.412C119.135 173.524 119.463 173.757 119.693 174.11C119.922 174.469 120.037 174.884 120.037 175.355ZM117.548 176.398H117.758V175.287C117.758 174.693 117.576 174.396 117.211 174.396C117.032 174.396 116.892 174.469 116.791 174.614C116.695 174.76 116.648 174.962 116.648 175.22C116.648 175.568 116.726 175.851 116.883 176.07C117.046 176.288 117.267 176.398 117.548 176.398ZM119.146 177.959H119.928V181.836H119.146V180.339H116V179.447H119.146V177.959ZM116.715 184.42C116.715 184.846 116.858 185.155 117.144 185.345V186.313C116.757 186.167 116.451 185.923 116.227 185.581C116.003 185.239 115.891 184.852 115.891 184.42C115.891 183.82 116.087 183.321 116.479 182.923C116.872 182.525 117.368 182.326 117.968 182.326C118.557 182.326 119.048 182.519 119.44 182.906C119.838 183.293 120.037 183.784 120.037 184.378C120.037 184.956 119.841 185.432 119.449 185.808C119.062 186.184 118.579 186.372 118.002 186.372C117.822 186.372 117.705 186.366 117.649 186.355V183.251C117.368 183.302 117.141 183.433 116.967 183.646C116.799 183.865 116.715 184.123 116.715 184.42ZM119.238 184.378C119.238 184.087 119.157 183.837 118.994 183.63C118.837 183.428 118.627 183.307 118.364 183.268V185.43C118.633 185.385 118.846 185.267 119.003 185.076C119.16 184.891 119.238 184.659 119.238 184.378ZM114.284 188.299V187.408H119.928V188.299H119.566C119.88 188.597 120.037 189.009 120.037 189.536C120.037 190.147 119.833 190.632 119.423 190.991C119.02 191.356 118.535 191.538 117.968 191.538C117.396 191.538 116.906 191.356 116.496 190.991C116.093 190.632 115.891 190.147 115.891 189.536C115.891 189.009 116.048 188.597 116.362 188.299H114.284ZM118.885 188.619C118.672 188.384 118.366 188.266 117.968 188.266C117.57 188.266 117.262 188.384 117.043 188.619C116.824 188.86 116.715 189.146 116.715 189.477C116.715 189.819 116.836 190.1 117.077 190.318C117.323 190.537 117.621 190.646 117.968 190.646C118.31 190.646 118.602 190.537 118.843 190.318C119.09 190.1 119.213 189.819 119.213 189.477C119.213 189.146 119.104 188.86 118.885 188.619ZM116.715 194.425C116.715 194.851 116.858 195.16 117.144 195.35V196.318C116.757 196.172 116.451 195.928 116.227 195.586C116.003 195.244 115.891 194.857 115.891 194.425C115.891 193.825 116.087 193.326 116.479 192.928C116.872 192.53 117.368 192.331 117.968 192.331C118.557 192.331 119.048 192.524 119.44 192.911C119.838 193.298 120.037 193.789 120.037 194.383C120.037 194.961 119.841 195.437 119.449 195.813C119.062 196.189 118.579 196.377 118.002 196.377C117.822 196.377 117.705 196.371 117.649 196.36V193.256C117.368 193.306 117.141 193.438 116.967 193.651C116.799 193.87 116.715 194.128 116.715 194.425ZM119.238 194.383C119.238 194.091 119.157 193.842 118.994 193.634C118.837 193.433 118.627 193.312 118.364 193.273V195.434C118.633 195.39 118.846 195.272 119.003 195.081C119.16 194.896 119.238 194.663 119.238 194.383ZM116 198.304V197.413H119.928V198.304H117.262L119.928 200.399V201.29H116V200.399H118.666L116 198.304ZM122.023 197.741V198.489C121.787 198.506 121.594 198.593 121.442 198.75C121.291 198.913 121.215 199.112 121.215 199.347C121.215 199.583 121.291 199.779 121.442 199.936C121.594 200.099 121.787 200.188 122.023 200.205V200.954C121.574 200.931 121.204 200.769 120.912 200.466C120.621 200.163 120.475 199.79 120.475 199.347C120.475 198.904 120.621 198.531 120.912 198.229C121.204 197.926 121.574 197.763 122.023 197.741Z" fill="#A0A0A0"/>
<g clip-path="url(#clip0_784_44358)">
<path d="M98.1504 9.40039C90.4184 9.40039 84.1504 15.6684 84.1504 23.4004C84.1504 31.1324 90.4184 37.4004 98.1504 37.4004C105.882 37.4004 112.15 31.1324 112.15 23.4004C112.15 15.6684 105.882 9.40039 98.1504 9.40039ZM98.1504 35.4004C91.5234 35.4004 86.1504 30.0274 86.1504 23.4004C86.1504 17.1381 90.9483 11.9956 97.0683 11.4485C97.4248 11.4167 97.7857 11.4004 98.1504 11.4004C98.4597 11.4004 98.7663 11.4121 99.0698 11.4351C105.267 11.9047 110.15 17.0827 110.15 23.4004C110.15 30.0274 104.777 35.4004 98.1504 35.4004Z" fill="#262626"/>
<path d="M98.1504 11.4004C97.7857 11.4004 97.4248 11.4167 97.0683 11.4485V22.3997C97.0683 22.9523 97.5164 23.4004 98.0691 23.4004C98.6218 23.4004 99.0698 22.9523 99.0698 22.3997V11.4351C98.7663 11.4121 98.4597 11.4004 98.1504 11.4004Z" fill="#262626"/>
</g>
<path d="M98.3945 1.03866C97.7715 1.03866 97.2543 1.25673 96.8431 1.69288C96.4319 2.12279 96.2263 2.66485 96.2263 3.31907C96.2263 3.97328 96.4319 4.51846 96.8431 4.9546C97.2543 5.38451 97.7715 5.59947 98.3945 5.59947C99.0737 5.59947 99.6157 5.33155 100.021 4.79572H101.152C100.896 5.33778 100.532 5.76458 100.058 6.07611C99.5846 6.38764 99.0301 6.5434 98.3945 6.5434C97.4849 6.5434 96.7247 6.2381 96.1141 5.6275C95.5035 5.01067 95.1982 4.24119 95.1982 3.31907C95.1982 2.39694 95.5035 1.63057 96.1141 1.01997C96.7247 0.403142 97.4849 0.0947266 98.3945 0.0947266C99.0238 0.0947266 99.5752 0.253607 100.049 0.571368C100.529 0.882898 100.896 1.30969 101.152 1.85176H100.021C99.6157 1.30969 99.0737 1.03866 98.3945 1.03866Z" fill="#262626"/>
<path d="M120.233 23.2972C120.744 23.5838 121 24.0448 121 24.6804C121 25.1851 120.828 25.5994 120.485 25.9234C120.143 26.2411 119.641 26.4 118.981 26.4H116.14V20.1943H118.981C119.641 20.1943 120.143 20.3563 120.485 20.6803C120.828 21.0043 121 21.4187 121 21.9233C121 22.5526 120.744 23.0106 120.233 23.2972ZM117.168 25.4561H118.915C119.246 25.4561 119.504 25.3844 119.691 25.2411C119.878 25.0978 119.971 24.8891 119.971 24.615C119.971 24.3346 119.878 24.1227 119.691 23.9794C119.504 23.8361 119.246 23.7645 118.915 23.7645H117.168V25.4561ZM117.168 22.8205H118.915C119.246 22.8205 119.504 22.752 119.691 22.6149C119.878 22.4716 119.971 22.2629 119.971 21.9888C119.971 21.7084 119.878 21.4965 119.691 21.3532C119.504 21.2099 119.246 21.1383 118.915 21.1383H117.168V22.8205Z" fill="#262626"/>
<path d="M79.306 24.6247C79.306 24.3506 79.2094 24.1418 79.0162 23.9985C78.8293 23.849 78.5676 23.7742 78.2312 23.7742H76.7732V22.8303H78.2312C78.5614 22.8303 78.82 22.7555 79.0069 22.606C79.2 22.4564 79.2966 22.2508 79.2966 21.9892C79.2966 21.6839 79.1627 21.4471 78.8948 21.2789C78.6268 21.1044 78.2779 21.0172 77.848 21.0172C77.4742 21.0172 77.1408 21.0919 76.848 21.2415C76.5614 21.3848 76.362 21.581 76.2499 21.8303H75.1751C75.3308 21.3443 75.633 20.93 76.0816 20.5873C76.5302 20.2446 77.1097 20.0732 77.82 20.0732C78.5427 20.0732 79.1409 20.2415 79.6144 20.5779C80.0879 20.9144 80.3247 21.3848 80.3247 21.9892C80.3247 22.5624 80.0692 22.9985 79.5583 23.2976C80.0755 23.5966 80.334 24.0359 80.334 24.6154C80.334 25.1761 80.0973 25.6341 79.6237 25.9892C79.1502 26.3443 78.5458 26.5219 77.8106 26.5219C76.4087 26.5219 75.5178 25.9394 75.1377 24.7742H76.2125C76.5115 25.3101 77.0443 25.578 77.8106 25.578C78.2468 25.578 78.605 25.497 78.8854 25.335C79.1658 25.173 79.306 24.9362 79.306 24.6247Z" fill="#262626"/>
<path d="M99.4399 40.0518C100.356 40.0518 101.11 40.3602 101.702 40.977C102.3 41.5938 102.599 42.3602 102.599 43.2761C102.599 44.192 102.3 44.9584 101.702 45.5752C101.11 46.192 100.356 46.5004 99.4399 46.5004C98.605 46.5004 97.8978 46.2419 97.3184 45.7247C96.7451 45.2076 96.4087 44.5471 96.309 43.7434H95.0847V46.3789H94.0566V40.1733H95.0847V42.7995H96.309C96.4212 41.9957 96.7607 41.3384 97.3277 40.8275C97.9009 40.3103 98.605 40.0518 99.4399 40.0518ZM100.963 41.6499C100.565 41.2138 100.057 40.9957 99.4399 40.9957C98.8231 40.9957 98.3121 41.2138 97.9072 41.6499C97.5084 42.0798 97.309 42.6219 97.309 43.2761C97.309 43.9303 97.5084 44.4755 97.9072 44.9116C98.3121 45.3478 98.8231 45.5658 99.4399 45.5658C100.057 45.5658 100.565 45.3478 100.963 44.9116C101.368 44.4755 101.571 43.9303 101.571 43.2761C101.571 42.6219 101.368 42.0798 100.963 41.6499Z" fill="#262626"/>
<defs>
<clipPath id="clip0_784_44358">
<rect width="28" height="28" fill="white" transform="translate(84.1504 9.40039)"/>
</clipPath>
</defs>
</svg>
