<?xml version="1.0" encoding="UTF-8"?><svg id="Layer_2" xmlns="http://www.w3.org/2000/svg" viewBox="0 0 83.53 104.65"><defs><style>.cls-1{fill:#fff;}.cls-2{fill:#9ba7d1;}.cls-3{fill:#f5f5fd;}</style></defs><g id="Layer_1-2"><g><rect class="cls-3" width="83.53" height="104.65" rx="12.62" ry="12.62"/><circle class="cls-2" cx="20.99" cy="22.18" r="9.68"/><polygon class="cls-1" points="18.99 25.73 18.99 19.12 24.49 22.21 18.99 25.73"/><rect class="cls-2" x="13.62" y="62.79" width="28.9" height=".47"/><g><path class="cls-2" d="M18.13,55.27c-.07,0-.15-.03-.2-.08-.11-.11-.11-.29,0-.41l5.89-5.89c.11-.11,.29-.11,.41,0s.11,.29,0,.41l-5.89,5.89c-.06,.06-.13,.08-.2,.08Z"/><path class="cls-2" d="M18.67,51.79c-.79,0-1.43-.64-1.43-1.43s.64-1.43,1.43-1.43,1.43,.64,1.43,1.43-.64,1.43-1.43,1.43Zm0-2.29c-.47,0-.86,.39-.86,.86s.39,.86,.86,.86,.86-.39,.86-.86-.39-.86-.86-.86Z"/><path class="cls-2" d="M14.08,54.66c-.16,0-.29-.13-.29-.29s.13-.29,.29-.29c.79,0,1.43-.64,1.43-1.43s-.64-1.43-1.43-1.43c-.16,0-.29-.13-.29-.29s.13-.29,.29-.29c1.11,0,2.01,.9,2.01,2.01s-.9,2.01-2.01,2.01Z"/><path class="cls-2" d="M27.26,54.66c-1.11,0-2.01-.9-2.01-2.01s.9-2.01,2.01-2.01c.16,0,.29,.13,.29,.29s-.13,.29-.29,.29c-.79,0-1.43,.64-1.43,1.43s.64,1.43,1.43,1.43c.16,0,.29,.13,.29,.29s-.13,.29-.29,.29Z"/><path class="cls-2" d="M23.25,55.81c-.79,0-1.43-.64-1.43-1.43s.64-1.43,1.43-1.43,1.43,.64,1.43,1.43-.64,1.43-1.43,1.43Zm0-2.29c-.47,0-.86,.39-.86,.86s.39,.86,.86,.86,.86-.39,.86-.86-.39-.86-.86-.86Z"/><path class="cls-2" d="M27.26,51.22c-.16,0-.29-.13-.29-.29v-2.87c0-.16-.13-.29-.29-.29H14.65c-.16,0-.29,.13-.29,.29v2.87c0,.16-.13,.29-.29,.29s-.29-.13-.29-.29v-2.87c0-.47,.39-.86,.86-.86h12.04c.47,0,.86,.39,.86,.86v2.87c0,.16-.13,.29-.29,.29Z"/><path class="cls-2" d="M26.69,57.52H14.65c-.47,0-.86-.39-.86-.86v-2.29c0-.16,.13-.29,.29-.29s.29,.13,.29,.29v2.29c0,.16,.13,.29,.29,.29h12.04c.16,0,.29-.13,.29-.29v-2.29c0-.16,.13-.29,.29-.29s.29,.13,.29,.29v2.29c0,.47-.39,.86-.86,.86Z"/></g></g></g></svg>