<?xml version="1.0" encoding="UTF-8"?><svg id="Layer_2" xmlns="http://www.w3.org/2000/svg" viewBox="0 0 83.53 104.65"><defs><style>.cls-1{fill:#fff;}.cls-2{fill:#f5f5fd;}.cls-3{fill:#6fb167;}</style></defs><g id="Layer_1-2"><g><rect class="cls-2" width="83.53" height="104.65" rx="12.62" ry="12.62"/><circle class="cls-3" cx="20.99" cy="22.18" r="9.68"/><polygon class="cls-1" points="18.99 25.73 18.99 19.12 24.49 22.21 18.99 25.73"/><rect class="cls-3" x="13.62" y="62.79" width="28.9" height=".47"/><g><path class="cls-3" d="M28.07,49.19H15.26c-.15,0-.28-.12-.28-.28v-1.67c0-.15,.12-.28,.28-.28h12.81c.15,0,.28,.12,.28,.28v1.67c0,.15-.12,.28-.28,.28Zm-12.53-.56h12.25v-1.11H15.54v1.11Z"/><path class="cls-3" d="M28.07,51.98H15.26c-.15,0-.28-.12-.28-.28v-1.67c0-.15,.12-.28,.28-.28h12.81c.15,0,.28,.12,.28,.28v1.67c0,.15-.12,.28-.28,.28Zm-12.53-.56h12.25v-1.11H15.54v1.11Z"/><path class="cls-3" d="M17.49,50.31c-.15,0-.28-.12-.28-.28v-1.11c0-.15,.12-.28,.28-.28s.28,.12,.28,.28v1.11c0,.15-.12,.28-.28,.28Z"/><path class="cls-3" d="M17.49,53.65c-.15,0-.28-.12-.28-.28v-1.67c0-.15,.12-.28,.28-.28s.28,.12,.28,.28v1.67c0,.15-.12,.28-.28,.28Z"/><path class="cls-3" d="M17.49,47.52c-.15,0-.28-.12-.28-.28v-.56c0-.15,.12-.28,.28-.28s.28,.12,.28,.28v.56c0,.15-.12,.28-.28,.28Z"/><path class="cls-3" d="M25.84,50.31c-.15,0-.28-.12-.28-.28v-1.11c0-.15,.12-.28,.28-.28s.28,.12,.28,.28v1.11c0,.15-.12,.28-.28,.28Z"/><path class="cls-3" d="M25.84,53.65c-.15,0-.28-.12-.28-.28v-1.67c0-.15,.12-.28,.28-.28s.28,.12,.28,.28v1.67c0,.15-.12,.28-.28,.28Z"/><path class="cls-3" d="M25.84,47.52c-.15,0-.28-.12-.28-.28v-.56c0-.15,.12-.28,.28-.28s.28,.12,.28,.28v.56c0,.15-.12,.28-.28,.28Z"/><path class="cls-3" d="M28.07,53.65H15.26c-.15,0-.28-.12-.28-.28s.12-.28,.28-.28h12.81c.15,0,.28,.12,.28,.28s-.12,.28-.28,.28Z"/><path class="cls-3" d="M15.82,57.55s-.03,0-.04,0c-.15-.02-.26-.16-.24-.32l.45-3.13c.08-.57,.58-1.01,1.16-1.01,.65,0,1.17,.53,1.17,1.17v2.45c0,.15-.12,.28-.28,.28s-.28-.12-.28-.28v-2.45c0-.34-.28-.62-.62-.62-.3,0-.57,.23-.61,.53l-.45,3.13c-.02,.14-.14,.24-.28,.24Z"/><path class="cls-3" d="M27.51,57.55c-.14,0-.26-.1-.28-.24l-.45-3.13c-.04-.3-.31-.53-.61-.53-.34,0-.62,.28-.62,.62v2.45c0,.15-.12,.28-.28,.28s-.28-.12-.28-.28v-2.45c0-.65,.53-1.17,1.17-1.17,.58,0,1.08,.43,1.16,1.01l.45,3.13c.02,.15-.08,.29-.24,.32-.01,0-.03,0-.04,0Z"/></g></g></g></svg>