<?xml version="1.0" encoding="utf-8"?>
<!-- Generator: Adobe Illustrator 26.3.1, SVG Export Plug-In . SVG Version: 6.00 Build 0)  -->
<svg version="1.1" id="Layer_2_00000167394999979501585810000001968276283204923047_"
	 xmlns="http://www.w3.org/2000/svg" xmlns:xlink="http://www.w3.org/1999/xlink" x="0px" y="0px" viewBox="0 0 83.5 104.7"
	 style="enable-background:new 0 0 83.5 104.7;" xml:space="preserve">
<style type="text/css">
	.st0{fill:#95C780;}
	.st1{fill:#F5F5FD;}
</style>
<g id="Layer_1-2">
	<g>
		<path class="st0" d="M12.6,0h58.3c7,0,12.6,5.7,12.6,12.6V92c0,7-5.7,12.6-12.6,12.6H12.6C5.7,104.7,0,99,0,92V12.6
			C0,5.7,5.7,0,12.6,0z"/>
		<circle class="st1" cx="21" cy="22.2" r="9.7"/>
		<polygon class="st0" points="19,25.7 19,19.1 24.5,22.2 		"/>
		<rect x="13.6" y="62.8" class="st1" width="28.9" height="0.5"/>
		<g>
			<path class="st1" d="M26.9,56.2h-7.8c-0.1,0-0.3-0.1-0.3-0.3V44c0-0.1,0.1-0.3,0.3-0.3h7.8c0.1,0,0.3,0.1,0.3,0.3v12
				C27.2,56.1,27,56.2,26.9,56.2z M19.3,55.7h7.3V44.2h-7.3V55.7z"/>
			<path class="st1" d="M19.1,56.2h-4.2c-0.1,0-0.3-0.1-0.3-0.3v-8.9c0-0.1,0.1-0.3,0.3-0.3h4.2c0.1,0,0.3,0.1,0.3,0.3V56
				C19.3,56.1,19.2,56.2,19.1,56.2z M15.2,55.7h3.7v-8.4h-3.7V55.7z"/>
			<path class="st1" d="M19.1,50.5h-2.6c-0.1,0-0.3-0.1-0.3-0.3v-1.6c0-0.1,0.1-0.3,0.3-0.3h2.6c0.1,0,0.3,0.1,0.3,0.3v1.6
				C19.3,50.4,19.2,50.5,19.1,50.5z M16.7,50h2.1v-1h-2.1V50z"/>
			<path class="st1" d="M19.1,53.6h-2.6c-0.1,0-0.3-0.1-0.3-0.3v-1.6c0-0.1,0.1-0.3,0.3-0.3h2.6c0.1,0,0.3,0.1,0.3,0.3v1.6
				C19.3,53.5,19.2,53.6,19.1,53.6z M16.7,53.1h2.1v-1h-2.1V53.1z"/>
			<path class="st1" d="M24.3,56.2h-2.6c-0.1,0-0.3-0.1-0.3-0.3v-1.6c0-0.7,0.6-1.3,1.3-1.3h0.5c0.7,0,1.3,0.6,1.3,1.3V56
				C24.6,56.1,24.4,56.2,24.3,56.2L24.3,56.2z M21.9,55.7H24v-1.3c0-0.4-0.4-0.8-0.8-0.8h-0.5c-0.4,0-0.8,0.3-0.8,0.8L21.9,55.7
				L21.9,55.7z"/>
			<path class="st1" d="M21.2,45.8h-0.5c-0.1,0-0.3-0.1-0.3-0.3s0.1-0.3,0.3-0.3h0.5c0.1,0,0.3,0.1,0.3,0.3S21.3,45.8,21.2,45.8z"/>
			<path class="st1" d="M23.3,45.8h-0.5c-0.1,0-0.3-0.1-0.3-0.3s0.1-0.3,0.3-0.3h0.5c0.1,0,0.3,0.1,0.3,0.3S23.4,45.8,23.3,45.8z"/>
			<path class="st1" d="M25.4,45.8h-0.5c-0.1,0-0.3-0.1-0.3-0.3s0.1-0.3,0.3-0.3h0.5c0.1,0,0.3,0.1,0.3,0.3S25.5,45.8,25.4,45.8z"/>
			<path class="st1" d="M21.2,47.4h-0.5c-0.1,0-0.3-0.1-0.3-0.3s0.1-0.3,0.3-0.3h0.5c0.1,0,0.3,0.1,0.3,0.3S21.3,47.4,21.2,47.4z"/>
			<path class="st1" d="M23.3,47.4h-0.5c-0.1,0-0.3-0.1-0.3-0.3s0.1-0.3,0.3-0.3h0.5c0.1,0,0.3,0.1,0.3,0.3S23.4,47.4,23.3,47.4z"/>
			<path class="st1" d="M25.4,47.4h-0.5c-0.1,0-0.3-0.1-0.3-0.3s0.1-0.3,0.3-0.3h0.5c0.1,0,0.3,0.1,0.3,0.3S25.5,47.4,25.4,47.4z"/>
			<path class="st1" d="M21.2,48.9h-0.5c-0.1,0-0.3-0.1-0.3-0.3s0.1-0.3,0.3-0.3h0.5c0.1,0,0.3,0.1,0.3,0.3S21.3,48.9,21.2,48.9z"/>
			<path class="st1" d="M23.3,48.9h-0.5c-0.1,0-0.3-0.1-0.3-0.3s0.1-0.3,0.3-0.3h0.5c0.1,0,0.3,0.1,0.3,0.3S23.4,48.9,23.3,48.9z"/>
			<path class="st1" d="M25.4,48.9h-0.5c-0.1,0-0.3-0.1-0.3-0.3s0.1-0.3,0.3-0.3h0.5c0.1,0,0.3,0.1,0.3,0.3S25.5,48.9,25.4,48.9z"/>
			<path class="st1" d="M21.2,50.5h-0.5c-0.1,0-0.3-0.1-0.3-0.3s0.1-0.3,0.3-0.3h0.5c0.1,0,0.3,0.1,0.3,0.3S21.3,50.5,21.2,50.5z"/>
			<path class="st1" d="M23.3,50.5h-0.5c-0.1,0-0.3-0.1-0.3-0.3s0.1-0.3,0.3-0.3h0.5c0.1,0,0.3,0.1,0.3,0.3S23.4,50.5,23.3,50.5z"/>
			<path class="st1" d="M25.4,50.5h-0.5c-0.1,0-0.3-0.1-0.3-0.3s0.1-0.3,0.3-0.3h0.5c0.1,0,0.3,0.1,0.3,0.3S25.5,50.5,25.4,50.5z"/>
			<path class="st1" d="M21.2,52.1h-0.5c-0.1,0-0.3-0.1-0.3-0.3s0.1-0.3,0.3-0.3h0.5c0.1,0,0.3,0.1,0.3,0.3S21.3,52.1,21.2,52.1z"/>
			<path class="st1" d="M23.3,52.1h-0.5c-0.1,0-0.3-0.1-0.3-0.3s0.1-0.3,0.3-0.3h0.5c0.1,0,0.3,0.1,0.3,0.3S23.4,52.1,23.3,52.1z"/>
			<path class="st1" d="M25.4,52.1h-0.5c-0.1,0-0.3-0.1-0.3-0.3s0.1-0.3,0.3-0.3h0.5c0.1,0,0.3,0.1,0.3,0.3S25.5,52.1,25.4,52.1z"/>
		</g>
	</g>
</g>
</svg>
