<?xml version="1.0" encoding="utf-8"?>
<!-- Generator: Adobe Illustrator 26.3.1, SVG Export Plug-In . SVG Version: 6.00 Build 0)  -->
<svg version="1.1" id="Layer_2_00000021834563991316543480000004534944119867040430_"
	 xmlns="http://www.w3.org/2000/svg" xmlns:xlink="http://www.w3.org/1999/xlink" x="0px" y="0px" viewBox="0 0 83.5 104.7"
	 style="enable-background:new 0 0 83.5 104.7;" xml:space="preserve">
<style type="text/css">
	.st0{fill:#6FB167;}
	.st1{fill:#F5F5FD;}
</style>
<g id="Layer_1-2">
	<g>
		<path class="st0" d="M12.6,0h58.3c7,0,12.6,5.7,12.6,12.6V92c0,7-5.7,12.6-12.6,12.6H12.6C5.7,104.7,0,99,0,92V12.6
			C0,5.7,5.7,0,12.6,0z"/>
		<circle class="st1" cx="21" cy="22.2" r="9.7"/>
		<polygon class="st0" points="19,25.7 19,19.1 24.5,22.2 		"/>
		<rect x="13.6" y="62.8" class="st1" width="28.9" height="0.5"/>
		<g>
			<path class="st1" d="M28.1,49.2H15.3c-0.1,0-0.3-0.1-0.3-0.3v-1.7c0-0.2,0.1-0.3,0.3-0.3h12.8c0.1,0,0.3,0.1,0.3,0.3v1.7
				C28.4,49.1,28.2,49.2,28.1,49.2z M15.5,48.6h12.3v-1.1H15.5V48.6z"/>
			<path class="st1" d="M28.1,52H15.3c-0.1,0-0.3-0.1-0.3-0.3V50c0-0.2,0.1-0.3,0.3-0.3h12.8c0.1,0,0.3,0.1,0.3,0.3v1.7
				C28.4,51.9,28.2,52,28.1,52z M15.5,51.4h12.3v-1.1H15.5V51.4z"/>
			<path class="st1" d="M17.5,50.3c-0.1,0-0.3-0.1-0.3-0.3v-1.1c0-0.2,0.1-0.3,0.3-0.3s0.3,0.1,0.3,0.3V50
				C17.8,50.2,17.6,50.3,17.5,50.3z"/>
			<path class="st1" d="M17.5,53.7c-0.1,0-0.3-0.1-0.3-0.3v-1.7c0-0.2,0.1-0.3,0.3-0.3s0.3,0.1,0.3,0.3v1.7
				C17.8,53.5,17.6,53.7,17.5,53.7z"/>
			<path class="st1" d="M17.5,47.5c-0.1,0-0.3-0.1-0.3-0.3v-0.6c0-0.2,0.1-0.3,0.3-0.3s0.3,0.1,0.3,0.3v0.6
				C17.8,47.4,17.6,47.5,17.5,47.5z"/>
			<path class="st1" d="M25.8,50.3c-0.1,0-0.3-0.1-0.3-0.3v-1.1c0-0.2,0.1-0.3,0.3-0.3s0.3,0.1,0.3,0.3V50
				C26.1,50.2,26,50.3,25.8,50.3z"/>
			<path class="st1" d="M25.8,53.7c-0.1,0-0.3-0.1-0.3-0.3v-1.7c0-0.2,0.1-0.3,0.3-0.3s0.3,0.1,0.3,0.3v1.7
				C26.1,53.5,26,53.7,25.8,53.7z"/>
			<path class="st1" d="M25.8,47.5c-0.1,0-0.3-0.1-0.3-0.3v-0.6c0-0.2,0.1-0.3,0.3-0.3s0.3,0.1,0.3,0.3v0.6
				C26.1,47.4,26,47.5,25.8,47.5z"/>
			<path class="st1" d="M28.1,53.7H15.3c-0.1,0-0.3-0.1-0.3-0.3s0.1-0.3,0.3-0.3h12.8c0.1,0,0.3,0.1,0.3,0.3S28.2,53.7,28.1,53.7z"
				/>
			<path class="st1" d="M15.8,57.6C15.8,57.6,15.8,57.6,15.8,57.6c-0.2,0-0.3-0.2-0.3-0.3l0.4-3.1c0.1-0.6,0.6-1,1.2-1
				c0.6,0,1.2,0.5,1.2,1.2v2.5c0,0.2-0.1,0.3-0.3,0.3s-0.3-0.1-0.3-0.3v-2.5c0-0.3-0.3-0.6-0.6-0.6c-0.3,0-0.6,0.2-0.6,0.5l-0.5,3.1
				C16.1,57.4,15.9,57.5,15.8,57.6L15.8,57.6z"/>
			<path class="st1" d="M27.5,57.6c-0.1,0-0.3-0.1-0.3-0.2l-0.5-3.1c0-0.3-0.3-0.5-0.6-0.5c-0.3,0-0.6,0.3-0.6,0.6v2.5
				c0,0.2-0.1,0.3-0.3,0.3S25,56.9,25,56.7v-2.5c0-0.7,0.5-1.2,1.2-1.2c0.6,0,1.1,0.4,1.2,1l0.5,3.1C27.8,57.4,27.7,57.5,27.5,57.6
				C27.5,57.6,27.5,57.6,27.5,57.6L27.5,57.6z"/>
		</g>
	</g>
</g>
</svg>
