<?xml version="1.0" encoding="utf-8"?>
<!-- Generator: Adobe Illustrator 26.3.1, SVG Export Plug-In . SVG Version: 6.00 Build 0)  -->
<svg version="1.1" id="Layer_2_00000056426874123077463230000007863489406796965555_"
	 xmlns="http://www.w3.org/2000/svg" xmlns:xlink="http://www.w3.org/1999/xlink" x="0px" y="0px" viewBox="0 0 83.5 104.7"
	 style="enable-background:new 0 0 83.5 104.7;" xml:space="preserve">
<style type="text/css">
	.st0{fill:#9BA7D1;}
	.st1{fill:#F5F5FD;}
</style>
<g id="Layer_1-2">
	<g>
		<path class="st0" d="M12.6,0h58.3c7,0,12.6,5.7,12.6,12.6V92c0,7-5.7,12.6-12.6,12.6H12.6C5.7,104.7,0,99,0,92V12.6
			C0,5.7,5.7,0,12.6,0z"/>
		<circle class="st1" cx="21" cy="22.2" r="9.7"/>
		<polygon class="st0" points="19,25.7 19,19.1 24.5,22.2 		"/>
		<rect x="13.6" y="62.8" class="st1" width="28.9" height="0.5"/>
		<g>
			<path class="st1" d="M18.1,55.3c-0.1,0-0.1,0-0.2-0.1c-0.1-0.1-0.1-0.3,0-0.4l5.9-5.9c0.1-0.1,0.3-0.1,0.4,0s0.1,0.3,0,0.4
				l-5.9,5.9C18.3,55.3,18.2,55.3,18.1,55.3L18.1,55.3z"/>
			<path class="st1" d="M18.7,51.8c-0.8,0-1.4-0.6-1.4-1.4s0.6-1.4,1.4-1.4s1.4,0.6,1.4,1.4S19.5,51.8,18.7,51.8z M18.7,49.5
				c-0.5,0-0.9,0.4-0.9,0.9s0.4,0.9,0.9,0.9s0.9-0.4,0.9-0.9S19.1,49.5,18.7,49.5z"/>
			<path class="st1" d="M14.1,54.7c-0.2,0-0.3-0.1-0.3-0.3s0.1-0.3,0.3-0.3c0.8,0,1.4-0.6,1.4-1.4s-0.6-1.4-1.4-1.4
				c-0.2,0-0.3-0.1-0.3-0.3s0.1-0.3,0.3-0.3c1.1,0,2,0.9,2,2S15.2,54.7,14.1,54.7z"/>
			<path class="st1" d="M27.3,54.7c-1.1,0-2-0.9-2-2s0.9-2,2-2c0.2,0,0.3,0.1,0.3,0.3s-0.1,0.3-0.3,0.3c-0.8,0-1.4,0.6-1.4,1.4
				s0.6,1.4,1.4,1.4c0.2,0,0.3,0.1,0.3,0.3S27.4,54.7,27.3,54.7z"/>
			<path class="st1" d="M23.2,55.8c-0.8,0-1.4-0.6-1.4-1.4s0.6-1.4,1.4-1.4s1.4,0.6,1.4,1.4S24,55.8,23.2,55.8z M23.2,53.5
				c-0.5,0-0.9,0.4-0.9,0.9s0.4,0.9,0.9,0.9s0.9-0.4,0.9-0.9S23.7,53.5,23.2,53.5z"/>
			<path class="st1" d="M27.3,51.2c-0.2,0-0.3-0.1-0.3-0.3v-2.9c0-0.2-0.1-0.3-0.3-0.3h-12c-0.2,0-0.3,0.1-0.3,0.3v2.9
				c0,0.2-0.1,0.3-0.3,0.3s-0.3-0.1-0.3-0.3v-2.9c0-0.5,0.4-0.9,0.9-0.9h12c0.5,0,0.9,0.4,0.9,0.9v2.9
				C27.5,51.1,27.4,51.2,27.3,51.2L27.3,51.2z"/>
			<path class="st1" d="M26.7,57.5h-12c-0.5,0-0.9-0.4-0.9-0.9v-2.3c0-0.2,0.1-0.3,0.3-0.3s0.3,0.1,0.3,0.3v2.3
				c0,0.2,0.1,0.3,0.3,0.3h12c0.2,0,0.3-0.1,0.3-0.3v-2.3c0-0.2,0.1-0.3,0.3-0.3s0.3,0.1,0.3,0.3v2.3C27.6,57.1,27.2,57.5,26.7,57.5
				L26.7,57.5z"/>
		</g>
	</g>
</g>
</svg>
