<?xml version="1.0" encoding="UTF-8"?><svg id="Layer_2" xmlns="http://www.w3.org/2000/svg" viewBox="0 0 83.53 104.65"><defs><style>.cls-1{fill:#fff;}.cls-2{fill:#fdbc78;}.cls-3{fill:#f5f5fd;}</style></defs><g id="Layer_1-2"><g><rect class="cls-3" width="83.53" height="104.65" rx="12.62" ry="12.62"/><circle class="cls-2" cx="20.99" cy="22.18" r="9.68"/><polygon class="cls-1" points="18.99 25.73 18.99 19.12 24.49 22.21 18.99 25.73"/><rect class="cls-2" x="13.62" y="62.79" width="28.9" height=".47"/><path class="cls-2" d="M19.75,57.49c-.11,0-.21-.06-.25-.16-.26-.52-1.08-1.23-2.02-2.05-2.02-1.76-4.53-3.94-4.54-6.59,0-.98,.37-1.9,1.07-2.6,.7-.7,1.63-1.09,2.63-1.09,1.28,0,2.46,.66,3.12,1.73,.67-1.06,1.84-1.73,3.12-1.73,2.04,0,3.69,1.66,3.69,3.69h0c-.05,2.66-2.55,4.84-4.55,6.59-.94,.82-1.75,1.53-2.01,2.05-.05,.1-.15,.16-.25,.16Zm-3.12-11.93c-.84,0-1.63,.33-2.22,.92-.59,.59-.91,1.37-.9,2.2,.01,2.4,2.42,4.49,4.35,6.17,.82,.71,1.5,1.3,1.9,1.83,.4-.53,1.08-1.12,1.89-1.83,1.92-1.68,4.31-3.77,4.36-6.17,0-1.72-1.4-3.12-3.12-3.12-1.24,0-2.37,.74-2.86,1.88-.09,.21-.43,.21-.52,0-.5-1.14-1.62-1.88-2.86-1.88Zm9.66,3.12h0Z"/></g></g></svg>