<?xml version="1.0" encoding="UTF-8"?><svg id="Layer_2" xmlns="http://www.w3.org/2000/svg" viewBox="0 0 83.53 104.65"><defs><style>.cls-1{fill:#fff;}.cls-2{fill:#95c780;}.cls-3{fill:#f5f5fd;}</style></defs><g id="Layer_1-2"><g><rect class="cls-3" width="83.53" height="104.65" rx="12.62" ry="12.62"/><circle class="cls-2" cx="20.99" cy="22.18" r="9.68"/><polygon class="cls-1" points="18.99 25.73 18.99 19.12 24.49 22.21 18.99 25.73"/><rect class="cls-2" x="13.62" y="62.79" width="28.9" height=".47"/><g><path class="cls-2" d="M26.91,56.23h-7.84c-.14,0-.26-.12-.26-.26v-12.01c0-.14,.12-.26,.26-.26h7.84c.14,0,.26,.12,.26,.26v12.01c0,.14-.12,.26-.26,.26Zm-7.57-.52h7.31v-11.49h-7.31v11.49Z"/><path class="cls-2" d="M19.08,56.23h-4.18c-.14,0-.26-.12-.26-.26v-8.88c0-.14,.12-.26,.26-.26h4.18c.14,0,.26,.12,.26,.26v8.88c0,.14-.12,.26-.26,.26Zm-3.92-.52h3.66v-8.36h-3.66v8.36Z"/><path class="cls-2" d="M19.08,50.49h-2.61c-.14,0-.26-.12-.26-.26v-1.57c0-.14,.12-.26,.26-.26h2.61c.14,0,.26,.12,.26,.26v1.57c0,.14-.12,.26-.26,.26Zm-2.35-.52h2.09v-1.04h-2.09v1.04Z"/><path class="cls-2" d="M19.08,53.62h-2.61c-.14,0-.26-.12-.26-.26v-1.57c0-.14,.12-.26,.26-.26h2.61c.14,0,.26,.12,.26,.26v1.57c0,.14-.12,.26-.26,.26Zm-2.35-.52h2.09v-1.04h-2.09v1.04Z"/><path class="cls-2" d="M24.3,56.23h-2.61c-.14,0-.26-.12-.26-.26v-1.57c0-.72,.59-1.31,1.31-1.31h.52c.72,0,1.31,.59,1.31,1.31v1.57c0,.14-.12,.26-.26,.26Zm-2.35-.52h2.09v-1.31c0-.43-.35-.78-.78-.78h-.52c-.43,0-.78,.35-.78,.78v1.31Z"/><path class="cls-2" d="M21.17,45.78h-.52c-.14,0-.26-.12-.26-.26s.12-.26,.26-.26h.52c.14,0,.26,.12,.26,.26s-.12,.26-.26,.26Z"/><path class="cls-2" d="M23.26,45.78h-.52c-.14,0-.26-.12-.26-.26s.12-.26,.26-.26h.52c.14,0,.26,.12,.26,.26s-.12,.26-.26,.26Z"/><path class="cls-2" d="M25.35,45.78h-.52c-.14,0-.26-.12-.26-.26s.12-.26,.26-.26h.52c.14,0,.26,.12,.26,.26s-.12,.26-.26,.26Z"/><path class="cls-2" d="M21.17,47.35h-.52c-.14,0-.26-.12-.26-.26s.12-.26,.26-.26h.52c.14,0,.26,.12,.26,.26s-.12,.26-.26,.26Z"/><path class="cls-2" d="M23.26,47.35h-.52c-.14,0-.26-.12-.26-.26s.12-.26,.26-.26h.52c.14,0,.26,.12,.26,.26s-.12,.26-.26,.26Z"/><path class="cls-2" d="M25.35,47.35h-.52c-.14,0-.26-.12-.26-.26s.12-.26,.26-.26h.52c.14,0,.26,.12,.26,.26s-.12,.26-.26,.26Z"/><path class="cls-2" d="M21.17,48.92h-.52c-.14,0-.26-.12-.26-.26s.12-.26,.26-.26h.52c.14,0,.26,.12,.26,.26s-.12,.26-.26,.26Z"/><path class="cls-2" d="M23.26,48.92h-.52c-.14,0-.26-.12-.26-.26s.12-.26,.26-.26h.52c.14,0,.26,.12,.26,.26s-.12,.26-.26,.26Z"/><path class="cls-2" d="M25.35,48.92h-.52c-.14,0-.26-.12-.26-.26s.12-.26,.26-.26h.52c.14,0,.26,.12,.26,.26s-.12,.26-.26,.26Z"/><path class="cls-2" d="M21.17,50.49h-.52c-.14,0-.26-.12-.26-.26s.12-.26,.26-.26h.52c.14,0,.26,.12,.26,.26s-.12,.26-.26,.26Z"/><path class="cls-2" d="M23.26,50.49h-.52c-.14,0-.26-.12-.26-.26s.12-.26,.26-.26h.52c.14,0,.26,.12,.26,.26s-.12,.26-.26,.26Z"/><path class="cls-2" d="M25.35,50.49h-.52c-.14,0-.26-.12-.26-.26s.12-.26,.26-.26h.52c.14,0,.26,.12,.26,.26s-.12,.26-.26,.26Z"/><path class="cls-2" d="M21.17,52.05h-.52c-.14,0-.26-.12-.26-.26s.12-.26,.26-.26h.52c.14,0,.26,.12,.26,.26s-.12,.26-.26,.26Z"/><path class="cls-2" d="M23.26,52.05h-.52c-.14,0-.26-.12-.26-.26s.12-.26,.26-.26h.52c.14,0,.26,.12,.26,.26s-.12,.26-.26,.26Z"/><path class="cls-2" d="M25.35,52.05h-.52c-.14,0-.26-.12-.26-.26s.12-.26,.26-.26h.52c.14,0,.26,.12,.26,.26s-.12,.26-.26,.26Z"/></g></g></g></svg>