<?xml version="1.0" encoding="UTF-8"?><svg id="Layer_2" xmlns="http://www.w3.org/2000/svg" viewBox="0 0 83.53 104.65"><defs><style>.cls-1{fill:#fff;}.cls-2{fill:#cf8f8d;}.cls-3{fill:#f5f5fd;}</style></defs><g id="Layer_1-2"><g><rect class="cls-3" x="0" width="83.53" height="104.65" rx="12.62" ry="12.62"/><circle class="cls-2" cx="20.99" cy="22.18" r="9.68"/><polygon class="cls-1" points="18.99 25.73 18.99 19.12 24.49 22.21 18.99 25.73"/><g><path class="cls-2" d="M24.36,57c-.75,0-1.36-.61-1.36-1.36s.61-1.36,1.36-1.36,1.36,.61,1.36,1.36-.61,1.36-1.36,1.36Zm0-2.18c-.45,0-.82,.37-.82,.82s.37,.82,.82,.82,.82-.37,.82-.82-.37-.82-.82-.82Z"/><path class="cls-2" d="M17.84,57c-.75,0-1.36-.61-1.36-1.36s.61-1.36,1.36-1.36,1.36,.61,1.36,1.36-.61,1.36-1.36,1.36Zm0-2.18c-.45,0-.82,.37-.82,.82s.37,.82,.82,.82,.82-.37,.82-.82-.37-.82-.82-.82Z"/><path class="cls-2" d="M22.95,53.74h-4.25c-2.14,0-3.31-1.56-3.31-4.4v-.77c0-.15,.12-.27,.27-.27h10.34c.15,0,.27,.12,.27,.27v.77c0,2.84-1.18,4.4-3.31,4.4Zm-7.02-4.9v.5c0,2.56,.93,3.86,2.77,3.86h4.25c1.84,0,2.77-1.3,2.77-3.86v-.5H15.93Z"/><path class="cls-2" d="M26,48.84h-4.62c-.08,0-.16-.04-.21-.1-.05-.06-.07-.14-.06-.22l.65-3.86c.07-.43,.48-.73,.92-.68,2.05,.28,3.6,2.05,3.6,4.13v.46c0,.15-.12,.27-.27,.27Zm-4.3-.54h4.03v-.19c0-1.8-1.34-3.35-3.13-3.59-.14-.02-.28,.08-.31,.23h0l-.6,3.55Zm.33-3.59h0Z"/><path class="cls-2" d="M15.66,48.84c-.11,0-.22-.07-.26-.19l-.48-1.45h-.89c-.15,0-.27-.12-.27-.27s.12-.27,.27-.27h1.09c.12,0,.22,.07,.26,.19l.54,1.63c.05,.14-.03,.3-.17,.34-.03,0-.06,.01-.09,.01Z"/></g><rect class="cls-2" x="13.62" y="62.79" width="28.9" height=".47"/></g></g></svg>