<?xml version="1.0" encoding="UTF-8"?><svg id="Layer_2" xmlns="http://www.w3.org/2000/svg" viewBox="0 0 83.53 104.65"><defs><style>.cls-1{fill:#d4b0d3;}.cls-2{fill:#fff;}.cls-3{fill:#f5f5fd;}</style></defs><g id="Layer_1-2"><g><rect class="cls-3" width="83.53" height="104.65" rx="12.62" ry="12.62"/><circle class="cls-1" cx="20.99" cy="22.18" r="9.68"/><polygon class="cls-2" points="18.99 25.73 18.99 19.12 24.49 22.21 18.99 25.73"/><rect class="cls-1" x="13.62" y="62.79" width="28.9" height=".47"/><g><path class="cls-1" d="M23.58,48.9H14.51c-.47,0-.85-.38-.85-.85v-3.4c0-.47,.38-.85,.85-.85h9.07c.47,0,.85,.38,.85,.85v3.4c0,.47-.38,.85-.85,.85Zm-9.07-4.54c-.16,0-.28,.13-.28,.28v3.4c0,.16,.13,.28,.28,.28h9.07c.16,0,.28-.13,.28-.28v-3.4c0-.16-.13-.28-.28-.28H14.51Z"/><path class="cls-1" d="M19.05,52.86c-.16,0-.28-.13-.28-.28v-1.7c0-.47,.38-.85,.85-.85h5.1c.47,0,.85-.38,.85-.85v-2.27c0-.16-.13-.28-.28-.28h-1.13c-.16,0-.28-.13-.28-.28s.13-.28,.28-.28h1.13c.47,0,.85,.38,.85,.85v2.27c0,.78-.64,1.42-1.42,1.42h-5.1c-.16,0-.28,.13-.28,.28v1.7c0,.16-.13,.28-.28,.28Z"/><path class="cls-1" d="M19.61,57.4h-1.13c-.47,0-.85-.38-.85-.85v-3.4c0-.47,.38-.85,.85-.85h1.13c.47,0,.85,.38,.85,.85v3.4c0,.47-.38,.85-.85,.85Zm-1.13-4.54c-.16,0-.28,.13-.28,.28v3.4c0,.16,.13,.28,.28,.28h1.13c.16,0,.28-.13,.28-.28v-3.4c0-.16-.13-.28-.28-.28h-1.13Z"/></g></g></g></svg>