<?xml version="1.0" encoding="utf-8"?>
<!-- Generator: Adobe Illustrator 26.3.1, SVG Export Plug-In . SVG Version: 6.00 Build 0)  -->
<svg version="1.1" id="Layer_2_00000103255944376780279270000006545941432646723971_"
	 xmlns="http://www.w3.org/2000/svg" xmlns:xlink="http://www.w3.org/1999/xlink" x="0px" y="0px" viewBox="0 0 83.5 104.7"
	 style="enable-background:new 0 0 83.5 104.7;" xml:space="preserve">
<style type="text/css">
	.st0{fill:#D4B0D3;}
	.st1{fill:#F5F5FD;}
</style>
<g id="Layer_1-2">
	<g>
		<path class="st0" d="M12.6,0h58.3c7,0,12.6,5.7,12.6,12.6V92c0,7-5.7,12.6-12.6,12.6H12.6C5.7,104.7,0,99,0,92V12.6
			C0,5.7,5.7,0,12.6,0z"/>
		<circle class="st1" cx="21" cy="22.2" r="9.7"/>
		<polygon class="st0" points="19,25.7 19,19.1 24.5,22.2 		"/>
		<rect x="13.6" y="62.8" class="st1" width="28.9" height="0.5"/>
		<g>
			<path class="st1" d="M23.6,48.9h-9.1c-0.5,0-0.9-0.4-0.9-0.8v-3.4c0-0.5,0.4-0.8,0.9-0.8h9.1c0.5,0,0.9,0.4,0.9,0.8v3.4
				C24.4,48.5,24.1,48.9,23.6,48.9z M14.5,44.4c-0.2,0-0.3,0.1-0.3,0.3V48c0,0.2,0.1,0.3,0.3,0.3h9.1c0.2,0,0.3-0.1,0.3-0.3v-3.4
				c0-0.2-0.1-0.3-0.3-0.3H14.5z"/>
			<path class="st1" d="M19,52.9c-0.2,0-0.3-0.1-0.3-0.3v-1.7c0-0.5,0.4-0.8,0.9-0.8h5.1c0.5,0,0.9-0.4,0.9-0.8v-2.3
				c0-0.2-0.1-0.3-0.3-0.3h-1.1c-0.2,0-0.3-0.1-0.3-0.3s0.1-0.3,0.3-0.3h1.1c0.5,0,0.9,0.4,0.9,0.8v2.3c0,0.8-0.6,1.4-1.4,1.4h-5.1
				c-0.2,0-0.3,0.1-0.3,0.3v1.7C19.3,52.8,19.2,52.9,19,52.9L19,52.9z"/>
			<path class="st1" d="M19.6,57.4h-1.1c-0.5,0-0.9-0.4-0.9-0.8v-3.4c0-0.5,0.4-0.8,0.9-0.8h1.1c0.5,0,0.9,0.4,0.9,0.8v3.4
				C20.5,57,20.1,57.4,19.6,57.4z M18.5,52.9c-0.2,0-0.3,0.1-0.3,0.3v3.4c0,0.2,0.1,0.3,0.3,0.3h1.1c0.2,0,0.3-0.1,0.3-0.3v-3.4
				c0-0.2-0.1-0.3-0.3-0.3H18.5z"/>
		</g>
	</g>
</g>
</svg>
