<?xml version="1.0" encoding="utf-8"?>
<!-- Generator: Adobe Illustrator 26.3.1, SVG Export Plug-In . SVG Version: 6.00 Build 0)  -->
<svg version="1.1" id="Layer_2_00000024722113086859394830000016635791527634518716_"
	 xmlns="http://www.w3.org/2000/svg" xmlns:xlink="http://www.w3.org/1999/xlink" x="0px" y="0px" viewBox="0 0 83.5 104.7"
	 style="enable-background:new 0 0 83.5 104.7;" xml:space="preserve">
<style type="text/css">
	.st0{fill:#CF8F8D;}
	.st1{fill:#F5F5FD;}
</style>
<g>
	<path class="st0" d="M12.6,0h58.3c7,0,12.6,5.7,12.6,12.6V92c0,7-5.7,12.6-12.6,12.6H12.6C5.7,104.7,0,99,0,92V12.6
		C0,5.7,5.7,0,12.6,0z"/>
	<circle class="st1" cx="21" cy="22.2" r="9.7"/>
	<polygon class="st0" points="19,25.7 19,19.1 24.5,22.2 	"/>
	<g>
		<path class="st1" d="M24.4,57c-0.8,0-1.4-0.6-1.4-1.4s0.6-1.4,1.4-1.4s1.4,0.6,1.4,1.4S25.1,57,24.4,57z M24.4,54.8
			c-0.5,0-0.8,0.4-0.8,0.8s0.4,0.8,0.8,0.8s0.8-0.4,0.8-0.8S24.8,54.8,24.4,54.8z"/>
		<path class="st1" d="M17.8,57c-0.8,0-1.4-0.6-1.4-1.4s0.6-1.4,1.4-1.4s1.4,0.6,1.4,1.4S18.6,57,17.8,57z M17.8,54.8
			c-0.5,0-0.8,0.4-0.8,0.8s0.4,0.8,0.8,0.8s0.8-0.4,0.8-0.8S18.3,54.8,17.8,54.8z"/>
		<path class="st1" d="M23,53.7h-4.2c-2.1,0-3.3-1.6-3.3-4.4v-0.8c0-0.2,0.1-0.3,0.3-0.3H26c0.1,0,0.3,0.1,0.3,0.3v0.8
			C26.3,52.2,25.1,53.7,23,53.7L23,53.7z M15.9,48.8v0.5c0,2.6,0.9,3.9,2.8,3.9H23c1.8,0,2.8-1.3,2.8-3.9v-0.5H15.9z"/>
		<path class="st1" d="M26,48.8h-4.6c-0.1,0-0.2,0-0.2-0.1c0-0.1-0.1-0.1-0.1-0.2l0.6-3.9c0.1-0.4,0.5-0.7,0.9-0.7
			c2,0.3,3.6,2,3.6,4.1v0.5C26.3,48.7,26.2,48.8,26,48.8L26,48.8z M21.7,48.3h4v-0.2c0-1.8-1.3-3.3-3.1-3.6c-0.1,0-0.3,0.1-0.3,0.2
			l0,0L21.7,48.3L21.7,48.3z M22,44.7L22,44.7z"/>
		<path class="st1" d="M15.7,48.8c-0.1,0-0.2-0.1-0.3-0.2l-0.5-1.5H14c-0.1,0-0.3-0.1-0.3-0.3s0.1-0.3,0.3-0.3h1.1
			c0.1,0,0.2,0.1,0.3,0.2l0.5,1.6C16,48.6,15.9,48.8,15.7,48.8C15.7,48.8,15.7,48.8,15.7,48.8L15.7,48.8z"/>
	</g>
	<rect x="13.6" y="62.8" class="st1" width="28.9" height="0.5"/>
</g>
</svg>
