<svg width="40" height="41" viewBox="0 0 40 41" fill="none" xmlns="http://www.w3.org/2000/svg">
<path fill-rule="evenodd" clip-rule="evenodd" d="M14.57 26.096C14.3356 25.8617 14.0177 25.73 13.6862 25.73C13.3548 25.73 13.0369 25.8617 12.8025 26.096C8.80353 30.095 6.56147 32.337 2.5625 36.336V29.416C2.5625 29.0845 2.4308 28.7666 2.19638 28.5321C1.96196 28.2977 1.64402 28.166 1.3125 28.166C0.980979 28.166 0.663037 28.2977 0.428616 28.5321C0.194196 28.7666 0.0625 29.0845 0.0625 29.416V39.3535C0.0625 39.685 0.194196 40.003 0.428616 40.2374C0.663037 40.4718 0.980979 40.6035 1.3125 40.6035H11.25C11.5815 40.6035 11.8995 40.4718 12.1339 40.2374C12.3683 40.003 12.5 39.685 12.5 39.3535C12.5 39.022 12.3683 38.7041 12.1339 38.4696C11.8995 38.2352 11.5815 38.1035 11.25 38.1035H4.33L14.57 27.8635C14.8043 27.6291 14.936 27.3112 14.936 26.9798C14.936 26.6483 14.8043 26.3304 14.57 26.096ZM25.43 15.236C25.6644 15.4704 25.9823 15.602 26.3137 15.602C26.6452 15.602 26.9631 15.4704 27.1975 15.236L37.4375 4.99602V11.916C37.4375 12.2475 37.5692 12.5655 37.8036 12.7999C38.038 13.0343 38.356 13.166 38.6875 13.166C39.019 13.166 39.337 13.0343 39.5714 12.7999C39.8058 12.5655 39.9375 12.2475 39.9375 11.916V1.97852C39.9375 1.64699 39.8058 1.32905 39.5714 1.09463C39.337 0.860212 39.019 0.728516 38.6875 0.728516H28.75C28.4185 0.728516 28.1005 0.860212 27.8661 1.09463C27.6317 1.32905 27.5 1.64699 27.5 1.97852C27.5 2.31004 27.6317 2.62798 27.8661 2.8624C28.1005 3.09682 28.4185 3.22852 28.75 3.22852H35.67L25.43 13.4685C25.1957 13.7029 25.064 14.0208 25.064 14.3523C25.064 14.6837 25.1957 15.0016 25.43 15.236Z" fill="white"/>
</svg>
