<svg width="16" height="16" viewBox="0 0 16 16" fill="none" xmlns="http://www.w3.org/2000/svg">
<mask id="mask0_1452_21712" style="mask-type:alpha" maskUnits="userSpaceOnUse" x="0" y="0" width="16" height="17">
<path fill-rule="evenodd" clip-rule="evenodd" d="M2.33203 12.3343C1.77975 12.3343 1.33203 11.8866 1.33203 11.3343V8.23754C1.33203 7.47974 1.76032 6.78701 2.43823 6.44838L2.66554 6.33481L3.43553 3.03162C3.57623 2.42803 4.11426 2.00098 4.73403 2.00098H11.2968C11.9212 2.00098 12.462 2.4343 12.5981 3.0437L13.3331 6.33481L13.5598 6.44818C14.2374 6.78698 14.6654 7.47948 14.6654 8.23701V11.3343C14.6654 11.8866 14.2177 12.3343 13.6654 12.3343H12.9997V12.6676C12.9997 13.404 12.4023 14.001 11.6659 14.001C10.9295 14.001 10.332 13.404 10.332 12.6676V12.3343H5.66536V12.6677C5.66536 13.4041 5.06846 14.001 4.33213 14.001C3.5958 14.001 2.99887 13.4041 2.99887 12.6677V12.3343H2.33203ZM4.73403 2.62598C4.4048 2.62598 4.11896 2.85284 4.04421 3.17351L3.27422 6.4767C3.232 6.65785 3.11127 6.81078 2.94488 6.89391L2.71757 7.00748C2.25153 7.24028 1.95703 7.71654 1.95703 8.23754V11.3343C1.95703 11.5414 2.12492 11.7093 2.33203 11.7093H2.99887C3.34405 11.7093 3.62387 11.9891 3.62387 12.3343V12.6677C3.62387 13.0589 3.94096 13.376 4.33213 13.376C4.72329 13.376 5.04036 13.0589 5.04036 12.6677V12.3343C5.04036 11.9891 5.32019 11.7093 5.66536 11.7093H10.332C10.6772 11.7093 10.957 11.9891 10.957 12.3343V12.6676C10.957 13.0585 11.2744 13.376 11.6659 13.376C12.0574 13.376 12.3747 13.0585 12.3747 12.6676V12.3343C12.3747 11.9891 12.6546 11.7093 12.9997 11.7093H13.6654C13.8725 11.7093 14.0404 11.5414 14.0404 11.3343V8.23701C14.0404 7.71624 13.7461 7.24015 13.2804 7.00721L13.0536 6.89384C12.8854 6.80978 12.7641 6.6545 12.7231 6.47103L11.9881 3.17992C11.9158 2.85622 11.6285 2.62598 11.2968 2.62598H4.73403Z" fill="#333333"/>
<path fill-rule="evenodd" clip-rule="evenodd" d="M2.82685 2.88974C3.0335 2.00323 3.82373 1.37598 4.73403 1.37598H11.2968C12.2139 1.37598 13.0082 2.0124 13.208 2.90747L13.8784 5.90909C14.745 6.36059 15.2904 7.25736 15.2904 8.23701V11.3343C15.2904 12.2318 14.5628 12.9593 13.6654 12.9593H13.6032C13.4622 13.9027 12.6481 14.626 11.6659 14.626C10.6837 14.626 9.86955 13.9027 9.72861 12.9593H6.26881C6.12801 13.9025 5.31456 14.626 4.33213 14.626C3.34971 14.626 2.53624 13.9025 2.39543 12.9593H2.33203C1.43458 12.9593 0.707031 12.2318 0.707031 11.3343V8.23754C0.707031 7.25624 1.25422 6.35804 2.12343 5.90732L2.82685 2.88974ZM2.33203 12.3343C1.77975 12.3343 1.33203 11.8866 1.33203 11.3343V8.23754C1.33203 7.47974 1.76032 6.78701 2.43823 6.44838L2.66554 6.33481L3.43553 3.03162C3.57623 2.42803 4.11426 2.00098 4.73403 2.00098H11.2968C11.9212 2.00098 12.462 2.4343 12.5981 3.0437L13.3331 6.33481L13.5598 6.44818C14.2374 6.78698 14.6654 7.47948 14.6654 8.23701V11.3343C14.6654 11.8866 14.2177 12.3343 13.6654 12.3343H12.9997V12.6676C12.9997 13.404 12.4023 14.001 11.6659 14.001C10.9295 14.001 10.332 13.404 10.332 12.6676V12.3343H5.66536V12.6677C5.66536 13.4041 5.06846 14.001 4.33213 14.001C3.5958 14.001 2.99887 13.4041 2.99887 12.6677V12.3343H2.33203ZM4.73403 2.62598C4.4048 2.62598 4.11896 2.85284 4.04421 3.17351L3.27422 6.4767C3.232 6.65785 3.11127 6.81078 2.94488 6.89391L2.71757 7.00748C2.25153 7.24028 1.95703 7.71654 1.95703 8.23754V11.3343C1.95703 11.5414 2.12492 11.7093 2.33203 11.7093H2.99887C3.34405 11.7093 3.62387 11.9891 3.62387 12.3343V12.6677C3.62387 13.0589 3.94096 13.376 4.33213 13.376C4.72329 13.376 5.04036 13.0589 5.04036 12.6677V12.3343C5.04036 11.9891 5.32019 11.7093 5.66536 11.7093H10.332C10.6772 11.7093 10.957 11.9891 10.957 12.3343V12.6676C10.957 13.0585 11.2744 13.376 11.6659 13.376C12.0574 13.376 12.3747 13.0585 12.3747 12.6676V12.3343C12.3747 11.9891 12.6546 11.7093 12.9997 11.7093H13.6654C13.8725 11.7093 14.0404 11.5414 14.0404 11.3343V8.23701C14.0404 7.71624 13.7461 7.24015 13.2804 7.00721L13.0536 6.89384C12.8854 6.80978 12.7641 6.6545 12.7231 6.47103L11.9881 3.17992C11.9158 2.85622 11.6285 2.62598 11.2968 2.62598H4.73403ZM5.33203 9.83431C5.33203 10.2945 4.95893 10.6676 4.4987 10.6676C4.03846 10.6676 3.66536 10.2945 3.66536 9.83431C3.66536 9.37408 4.03846 9.00098 4.4987 9.00098C4.95893 9.00098 5.33203 9.37408 5.33203 9.83431ZM11.4987 10.6676C11.9589 10.6676 12.332 10.2945 12.332 9.83431C12.332 9.37408 11.9589 9.00098 11.4987 9.00098C11.0385 9.00098 10.6654 9.37408 10.6654 9.83431C10.6654 10.2945 11.0385 10.6676 11.4987 10.6676ZM4.56524 4.71172C4.70079 4.1017 5.24187 3.66764 5.8668 3.66764H10.1306C10.7555 3.66764 11.2966 4.10171 11.4322 4.71175L11.9828 7.18969C12.0267 7.38709 11.9786 7.59373 11.8521 7.75146C11.7255 7.9092 11.5342 8.00098 11.332 8.00098H4.66536C4.46315 8.00098 4.27187 7.9092 4.14534 7.75146C4.01881 7.59373 3.97071 7.38709 4.01457 7.18969L4.56524 4.71172Z" fill="#333333"/>
<path d="M11.4987 10.6676C11.9589 10.6676 12.332 10.2945 12.332 9.83431C12.332 9.37408 11.9589 9.00098 11.4987 9.00098C11.0385 9.00098 10.6654 9.37408 10.6654 9.83431C10.6654 10.2945 11.0385 10.6676 11.4987 10.6676Z" fill="#333333"/>
<path d="M4.4987 10.6676C4.95893 10.6676 5.33203 10.2945 5.33203 9.83431C5.33203 9.37408 4.95893 9.00098 4.4987 9.00098C4.03846 9.00098 3.66536 9.37408 3.66536 9.83431C3.66536 10.2945 4.03846 10.6676 4.4987 10.6676Z" fill="#333333"/>
</mask>
<g mask="url(#mask0_1452_21712)">
<rect y="0.000976562" width="16" height="16" fill="#F8F8FB"/>
</g>
</svg>
