<svg width="28" height="28" viewBox="0 0 28 28" fill="none" xmlns="http://www.w3.org/2000/svg">
<path fill-rule="evenodd" clip-rule="evenodd" d="M14 28C21.732 28 28 21.732 28 14C28 6.26801 21.732 0 14 0C6.26801 0 0 6.26801 0 14C0 21.732 6.26801 28 14 28ZM11.7551 17.4697C11.4622 17.7626 11.4622 18.2374 11.7551 18.5303C12.048 18.8232 12.5229 18.8232 12.8158 18.5303L16.8158 14.5303C16.9564 14.3897 17.0355 14.1989 17.0355 14C17.0355 13.8011 16.9564 13.6103 16.8158 13.4697L12.8158 9.46967C12.5229 9.17678 12.048 9.17678 11.7551 9.46967C11.4622 9.76256 11.4622 10.2374 11.7551 10.5303L15.2248 14L11.7551 17.4697Z" fill="#00944A"/>
</svg>
