<svg width="52" height="52" viewBox="0 0 52 52" fill="none" xmlns="http://www.w3.org/2000/svg">
<g clip-path="url(#clip0_1452_21140)">
<rect x="7.05556" y="7.05556" width="37.8889" height="37.8889" rx="18.9444" fill="white"/>
<rect x="7.05556" y="7.05556" width="37.8889" height="37.8889" rx="18.9444" stroke="#FF931E" stroke-width="6.11111"/>
<path d="M30.4189 34.2147C30.4189 34.4765 30.768 34.8474 31.0516 34.8474H31.6843C31.968 34.8474 32.317 34.4765 32.317 34.2147V17.1856C32.317 17.1856 30.4625 16.6074 29.328 20.6219C29.1098 21.5492 28.5316 23.2837 28.5316 24.7892C28.5316 26.2947 29.0225 27.9747 29.0225 27.9747C29.0225 27.9747 29.2952 29.1528 29.7861 29.1528H30.4189V34.2037V34.2147ZM22.2152 34.8474H22.848C23.1316 34.8474 23.4698 34.4874 23.4698 34.2147V26.0001C24.9098 25.3565 26.0007 23.3165 26.0007 21.5819V17.7856C26.0007 17.5128 25.7498 17.1528 25.368 17.1528C24.9861 17.1528 24.7352 17.5237 24.7352 17.7856V20.9492C24.7352 22.0837 23.7861 22.8037 23.4698 22.8474L23.1643 17.7856C23.1643 17.5237 22.837 17.1528 22.5316 17.1528C22.248 17.1528 21.9098 17.5128 21.9098 17.7856L21.5825 22.8474C21.2076 22.6926 20.8878 22.429 20.6641 22.0907C20.4405 21.7523 20.3234 21.3547 20.328 20.9492V17.7856C20.328 17.5237 20.0116 17.1528 19.6952 17.1528C19.3789 17.1528 19.0625 17.5128 19.0625 17.7856V21.5819C19.0625 23.3492 20.1534 25.3783 21.5934 26.0001V34.2147C21.5934 34.4874 21.9207 34.8474 22.2261 34.8474H22.2152Z" fill="#808285"/>
</g>
<rect x="2.47222" y="2.47222" width="47.0556" height="47.0556" rx="23.5278" stroke="white" stroke-width="3.05556"/>
<defs>
<clipPath id="clip0_1452_21140">
<rect x="4" y="4" width="44" height="44" rx="22" fill="white"/>
</clipPath>
</defs>
</svg>
