<svg width="52" height="52" viewBox="0 0 52 52" fill="none" xmlns="http://www.w3.org/2000/svg">
<g clip-path="url(#clip0_1452_20607)">
<rect x="7.05556" y="7.05556" width="37.8889" height="37.8889" rx="18.9444" fill="white"/>
<rect x="7.05556" y="7.05556" width="37.8889" height="37.8889" rx="18.9444" stroke="#1BAD04" stroke-width="6.11111"/>
<path d="M34.2147 27.9307V23.6434L36.102 22.8471L25.6838 18.418L15.2656 22.8471L25.6838 27.2652L33.582 23.9162V27.9307C33.2868 28.0102 33.0303 28.194 32.8601 28.4479C32.6898 28.7019 32.6173 29.0089 32.6559 29.3122C32.6944 29.6156 32.8415 29.8946 33.0699 30.0979C33.2983 30.3012 33.5926 30.4149 33.8984 30.418C34.2041 30.4149 34.4984 30.3012 34.7268 30.0979C34.9552 29.8946 35.1023 29.6156 35.1409 29.3122C35.1794 29.0089 35.1069 28.7019 34.9366 28.4479C34.7664 28.194 34.5099 28.0102 34.2147 27.9307ZM31.6838 30.4398V26.3161L25.6838 28.8471L19.6838 26.3161V30.4289C19.6838 30.4289 21.0256 33.2325 25.6838 32.9271C30.4184 32.9271 31.6838 30.4289 31.6838 30.4289V30.4398Z" fill="#808285"/>
</g>
<rect x="2.47222" y="2.47222" width="47.0556" height="47.0556" rx="23.5278" stroke="white" stroke-width="3.05556"/>
<defs>
<clipPath id="clip0_1452_20607">
<rect x="4" y="4" width="44" height="44" rx="22" fill="white"/>
</clipPath>
</defs>
</svg>
