<svg width="64" height="64" viewBox="0 0 64 64" fill="none" xmlns="http://www.w3.org/2000/svg">
<path d="M28.6667 28.6667L28.6667 45.3333M28.6667 28.6667L2 28.6667M28.6667 28.6667L28.6667 22M62 18.6667H42V25.3333M42 52V62M28.6667 55.3333V62M28.6667 2V12M62 42H42V35.3333M62 61.4353V2.5647C62 2.25283 61.7472 2 61.4353 2H2.5647C2.25283 2 2 2.25283 2 2.5647V61.4353C2 61.7472 2.25283 62 2.5647 62H61.4353C61.7472 62 62 61.7472 62 61.4353Z" stroke="#00944A" stroke-width="3" stroke-linecap="round" stroke-linejoin="round"/>
</svg>
