<svg width="24" height="24" viewBox="0 0 24 24" fill="none" xmlns="http://www.w3.org/2000/svg">
<g id="ico / account">
<g id="Vector">
<path fill-rule="evenodd" clip-rule="evenodd" d="M12 2.9375C10.3086 2.9375 8.9375 4.30863 8.9375 6C8.9375 7.69137 10.3086 9.0625 12 9.0625C13.6914 9.0625 15.0625 7.69137 15.0625 6C15.0625 4.30863 13.6914 2.9375 12 2.9375ZM7.0625 6C7.0625 3.27309 9.27309 1.0625 12 1.0625C14.7269 1.0625 16.9375 3.27309 16.9375 6C16.9375 8.72691 14.7269 10.9375 12 10.9375C9.27309 10.9375 7.0625 8.72691 7.0625 6Z" fill="#333333"/>
<path fill-rule="evenodd" clip-rule="evenodd" d="M2.0625 22C2.0625 16.5117 6.51168 12.0625 12 12.0625C17.4883 12.0625 21.9375 16.5117 21.9375 22C21.9375 22.5178 21.5178 22.9375 21 22.9375C20.4822 22.9375 20.0625 22.5178 20.0625 22C20.0625 17.5472 16.4528 13.9375 12 13.9375C7.54722 13.9375 3.9375 17.5472 3.9375 22C3.9375 22.5178 3.51777 22.9375 3 22.9375C2.48223 22.9375 2.0625 22.5178 2.0625 22Z" fill="#333333"/>
<path fill-rule="evenodd" clip-rule="evenodd" d="M16 6C16 8.20914 14.2091 10 12 10C9.79086 10 8 8.20914 8 6C8 3.79086 9.79086 2 12 2C14.2091 2 16 3.79086 16 6ZM12 2.9375C10.3086 2.9375 8.9375 4.30863 8.9375 6C8.9375 7.69137 10.3086 9.0625 12 9.0625C13.6914 9.0625 15.0625 7.69137 15.0625 6C15.0625 4.30863 13.6914 2.9375 12 2.9375Z" fill="#333333"/>
</g>
</g>
</svg>
