<svg width="24" height="24" viewBox="0 0 24 24" fill="none" xmlns="http://www.w3.org/2000/svg">
<g id="ico / sravni">
<path id="Vector (Stroke)" fill-rule="evenodd" clip-rule="evenodd" d="M11.0625 6C11.0625 5.48223 11.4822 5.0625 12 5.0625L21 5.0625C21.5178 5.0625 21.9375 5.48223 21.9375 6C21.9375 6.51777 21.5178 6.9375 21 6.9375L12 6.9375C11.4822 6.9375 11.0625 6.51777 11.0625 6Z" fill="#161616"/>
<path id="Vector (Stroke)_2" fill-rule="evenodd" clip-rule="evenodd" d="M2.0625 12.75C2.0625 12.2322 2.48223 11.8125 3 11.8125L21 11.8125C21.5178 11.8125 21.9375 12.2322 21.9375 12.75C21.9375 13.2678 21.5178 13.6875 21 13.6875L3 13.6875C2.48223 13.6875 2.0625 13.2678 2.0625 12.75Z" fill="#161616"/>
<path id="Vector (Stroke)_3" fill-rule="evenodd" clip-rule="evenodd" d="M2.0625 19.5C2.0625 18.9822 2.48223 18.5625 3 18.5625L21 18.5625C21.5178 18.5625 21.9375 18.9822 21.9375 19.5C21.9375 20.0178 21.5178 20.4375 21 20.4375L3 20.4375C2.48223 20.4375 2.0625 20.0178 2.0625 19.5Z" fill="#161616"/>
<path id="Vector (Stroke)_4" fill-rule="evenodd" clip-rule="evenodd" d="M6.14279 2.0625C5.62502 2.0625 5.20529 2.48223 5.20529 3V5.06252H3C2.48223 5.06252 2.0625 5.48225 2.0625 6.00002C2.0625 6.51778 2.48223 6.93752 3 6.93752H5.20529V9C5.20529 9.51777 5.62502 9.9375 6.14279 9.9375C6.66055 9.9375 7.08029 9.51777 7.08029 9V6.93752H9C9.51777 6.93752 9.9375 6.51778 9.9375 6.00002C9.9375 5.48225 9.51777 5.06252 9 5.06252H7.08029V3C7.08029 2.48223 6.66055 2.0625 6.14279 2.0625Z" fill="#161616"/>
</g>
</svg>
