<svg width="24" height="24" viewBox="0 0 24 24" fill="none" xmlns="http://www.w3.org/2000/svg">
<g id="ico/heart">
<path id="Path (Stroke)" fill-rule="evenodd" clip-rule="evenodd" d="M16.3053 3.9375C15.0455 3.9375 13.8337 4.45524 12.9396 5.38247L12.6745 5.65732C12.4978 5.84046 12.2542 5.94391 11.9998 5.94392C11.7453 5.94392 11.5017 5.84047 11.3251 5.65732L11.0599 5.38248C9.20188 3.45649 6.1865 3.45648 4.32846 5.38248C2.47786 7.30076 2.47385 10.406 4.31644 12.3294L12.0008 19.7016C12.6987 19.0375 13.4382 18.3441 14.1905 17.6387C16.0922 15.8555 18.0751 13.9963 19.6711 12.342C20.56 11.421 21.0625 10.17 21.0625 8.86222C21.0625 7.55448 20.5602 6.30374 19.6712 5.38261C18.7771 4.45546 17.5652 3.9375 16.3053 3.9375ZM12 3.69017C13.1921 2.6468 14.7161 2.0625 16.3053 2.0625C18.0832 2.0625 19.7794 2.7937 21.0206 4.0808C22.2525 5.35739 22.9375 7.07718 22.9375 8.86222C22.9375 10.6474 22.2524 12.3674 21.0203 13.6439C19.3942 15.3295 17.3429 17.2533 15.4184 19.0581C14.4385 19.9771 13.4915 20.8652 12.6503 21.6753C12.2877 22.0244 11.7142 22.025 11.351 21.6765L3.00473 13.6694C2.996 13.661 2.98744 13.6525 2.97905 13.6438C0.423651 10.9949 0.423651 6.72953 2.97905 4.08067C5.44206 1.52758 9.38597 1.39741 12 3.69017Z" fill="black"/>
</g>
</svg>
