<svg width="24" height="24" viewBox="0 0 24 24" fill="none" xmlns="http://www.w3.org/2000/svg">
<g id="ico / key">
<path id="Vector (Stroke)" fill-rule="evenodd" clip-rule="evenodd" d="M5.11866 12.875C6.6769 11.325 9.1985 11.3031 10.7837 12.8261L5.11866 12.875ZM10.8088 12.8493C11.8164 13.8602 12.21 15.326 11.8428 16.7013L11.8428 16.7014C11.4717 18.0913 10.3794 19.18 8.97683 19.5504L8.9768 19.5504C7.57554 19.9206 6.08348 19.5159 5.06601 18.4926C3.54135 16.9186 3.56423 14.4212 5.11865 12.875M10.7837 12.8261C10.7919 12.834 10.8003 12.8417 10.8088 12.8493L10.7837 12.8261ZM12.0437 11.4368C9.72168 9.24555 6.06437 9.28961 3.79634 11.5456L3.79633 11.5456C1.51297 13.817 1.48077 17.4918 3.72427 19.8024L3.72423 19.8024L3.73126 19.8095C5.22216 21.3126 7.40667 21.9046 9.4557 21.3633C11.5051 20.8219 13.1088 19.2287 13.6543 17.1849C14.2001 15.1408 13.6023 12.9636 12.0908 11.48C12.0755 11.465 12.0598 11.4506 12.0437 11.4368ZM9.21625 20.4569L9.4557 21.3633L9.21625 20.4569ZM9.21625 20.4569L9.21549 20.454L9.21625 20.4569Z" fill="#333333"/>
<path id="Vector (Stroke)_2" fill-rule="evenodd" clip-rule="evenodd" d="M20.6629 2.83709C21.029 3.2032 21.029 3.7968 20.6629 4.16291L12.1629 12.6629C11.7968 13.029 11.2032 13.029 10.8371 12.6629C10.471 12.2968 10.471 11.7032 10.8371 11.3371L19.3371 2.83709C19.7032 2.47097 20.2968 2.47097 20.6629 2.83709Z" fill="#333333"/>
<path id="Vector (Stroke)_3" fill-rule="evenodd" clip-rule="evenodd" d="M17.6578 4.63539C18.0235 4.2716 18.6144 4.2716 18.9802 4.63539L21.6945 7.33539C21.8713 7.51134 21.9708 7.75055 21.9708 8.00005C21.9708 8.24955 21.8713 8.48876 21.6945 8.66471L18.5278 11.8147C18.162 12.1785 17.5711 12.1785 17.2054 11.8147L14.4912 9.1147C14.3143 8.93875 14.2148 8.69954 14.2148 8.45005C14.2148 8.20055 14.3143 7.96135 14.4912 7.78539L17.6578 4.63539ZM18.319 6.62239L16.4817 8.45005L17.8666 9.82771L19.704 8.00005L18.319 6.62239Z" fill="#333333"/>
</g>
</svg>
