<svg width="24" height="24" viewBox="0 0 24 24" fill="none" xmlns="http://www.w3.org/2000/svg">
<g id="ico / main">
<path id="Vector (Stroke)" fill-rule="evenodd" clip-rule="evenodd" d="M2.0625 4C2.0625 2.92995 2.92995 2.0625 4 2.0625H9C10.0701 2.0625 10.9375 2.92996 10.9375 4V9C10.9375 10.0701 10.0701 10.9375 9 10.9375H4C2.92996 10.9375 2.0625 10.0701 2.0625 9V4ZM4 3.9375C3.96548 3.9375 3.9375 3.96548 3.9375 4V9C3.9375 9.03452 3.96547 9.0625 4 9.0625H9C9.03453 9.0625 9.0625 9.03453 9.0625 9V4C9.0625 3.96547 9.03452 3.9375 9 3.9375H4Z" fill="#333333"/>
<path id="Vector (Stroke)_2" fill-rule="evenodd" clip-rule="evenodd" d="M2.0625 15C2.0625 13.9299 2.92996 13.0625 4 13.0625H9C10.0701 13.0625 10.9375 13.9299 10.9375 15V20C10.9375 21.0701 10.0701 21.9375 9 21.9375H4C2.92996 21.9375 2.0625 21.0701 2.0625 20V15ZM4 14.9375C3.96547 14.9375 3.9375 14.9655 3.9375 15V20C3.9375 20.0345 3.96547 20.0625 4 20.0625H9C9.03453 20.0625 9.0625 20.0345 9.0625 20V15C9.0625 14.9655 9.03453 14.9375 9 14.9375H4Z" fill="#333333"/>
<path id="Vector (Stroke)_3" fill-rule="evenodd" clip-rule="evenodd" d="M12.6203 7.95552C11.8506 7.21221 11.8291 5.98565 12.5725 5.2159L16.0458 1.6192C16.7891 0.849452 18.0157 0.828065 18.7854 1.57138L22.3821 5.04467C23.1518 5.788 23.1732 7.01455 22.4299 7.78429L18.9566 11.381C18.2133 12.1507 16.9867 12.1721 16.217 11.4288L12.6203 7.95552ZM13.9212 6.51838C13.8972 6.54322 13.8979 6.58277 13.9228 6.60676L17.5195 10.08C17.5443 10.104 17.5839 10.1033 17.6078 10.0785L21.0811 6.48181C21.1051 6.45697 21.1044 6.41742 21.0796 6.39343L17.4829 2.92014C17.4581 2.89616 17.4185 2.89685 17.3945 2.92168L13.9212 6.51838Z" fill="#333333"/>
<path id="Vector (Stroke)_4" fill-rule="evenodd" clip-rule="evenodd" d="M13.0625 15C13.0625 13.9299 13.9299 13.0625 15 13.0625H20C21.0701 13.0625 21.9375 13.9299 21.9375 15V20C21.9375 21.0701 21.0701 21.9375 20 21.9375H15C13.9299 21.9375 13.0625 21.0701 13.0625 20V15ZM15 14.9375C14.9655 14.9375 14.9375 14.9655 14.9375 15V20C14.9375 20.0345 14.9655 20.0625 15 20.0625H20C20.0345 20.0625 20.0625 20.0345 20.0625 20V15C20.0625 14.9655 20.0345 14.9375 20 14.9375H15Z" fill="#333333"/>
</g>
</svg>
