<svg width="160" height="33" viewBox="0 0 160 33" fill="none" xmlns="http://www.w3.org/2000/svg">
<path d="M5.93831 15.5223L0 17.1559V32.666H5.93831V15.5223Z" fill="#00A650"/>
<path d="M28.9328 17.1559L22.9941 15.5223V32.666H28.9328V17.1559Z" fill="#00A650"/>
<path d="M21.2687 0.670622L15.3301 2.30416V32.668H21.2687V0.670622Z" fill="#00A650"/>
<path d="M21.2735 0.667467L7.66992 4.41107V32.666H13.6098V8.85563L21.2735 6.75068V0.667467Z" fill="#005D28"/>
<path d="M45.5795 4.07258V3.497H46.1551H58.1794V1.24286H42.8666V21.3697H45.5795V4.07258Z" fill="black" stroke="black" stroke-width="1.15115"/>
<path d="M74.7118 17.4702H75.0796L75.2341 17.8039L76.8859 21.3717H79.7766L70.6934 1.24481H67.2849L58.2018 21.3717H61.0181L62.6336 17.8081L62.7868 17.4702H63.1578H74.7118ZM64.6408 15.1823H63.7909L64.1064 14.393L68.1474 4.28458L68.2921 3.92266H68.6819H69.1161H69.5019L69.6485 4.27953L73.801 14.388L74.1273 15.1823H73.2686H64.6408Z" fill="black" stroke="black" stroke-width="1.15115"/>
<path d="M103.596 6.34231V21.3717H106.272V1.24481H102.992L95.6908 11.5346L95.227 12.1883L94.7558 11.5399L87.2746 1.24481H83.9545V21.3717H86.4494V6.34231V5.76673H87.025H87.1707H87.464L87.6364 6.00413L94.6487 15.6618H95.467L102.41 6.00628L102.582 5.76673H102.877H103.021H103.596V6.34231Z" fill="black" stroke="black" stroke-width="1.15115"/>
<path d="M130.676 6.34231V21.3717H133.352V1.24481H130.072L122.771 11.5346L122.307 12.1883L121.836 11.5399L114.355 1.24481H111.035V21.3717H113.529V6.34231V5.76673H114.105H114.251H114.544L114.716 6.00413L121.729 15.6618H122.547L129.488 6.00635L129.66 5.76673H129.955H130.101H130.676V6.34231Z" fill="black" stroke="black" stroke-width="1.15115"/>
<path d="M154.042 17.4702H154.41L154.564 17.8039L156.216 21.3717H159.109L150.024 1.24481H146.617L137.532 21.3717H140.348L141.966 17.8079L142.119 17.4702H142.49H154.042ZM143.971 15.1823H143.121L143.437 14.3929L147.48 4.28445L147.625 3.92266H148.015H148.446H148.832L148.979 4.27953L153.131 14.388L153.457 15.1823H152.599H143.971Z" fill="black" stroke="black" stroke-width="1.15115"/>
<path d="M42.3008 29.5018C42.3008 27.9775 43.4606 26.7148 45.0443 26.7148C46.0243 26.7148 46.5865 27.0903 47.1516 27.5991L46.8853 27.8685C46.4067 27.4153 45.8587 27.0759 45.0346 27.0759C43.7195 27.0759 42.723 28.1323 42.723 29.5018C42.723 30.8634 43.7343 31.9251 45.0443 31.9251C45.8342 31.9251 46.3743 31.6248 46.932 31.0866L47.2057 31.3489C46.6258 31.9105 45.9992 32.2891 45.0272 32.2891C43.4606 32.2891 42.3008 31.0626 42.3008 29.5018Z" fill="black"/>
<path d="M49.8555 27.1763H47.9434V26.8055H52.1745V27.1763H50.2624V32.1953H49.8555V27.1763Z" fill="black"/>
<path d="M53.416 26.8079H55.4072C56.6137 26.8079 57.4428 27.416 57.4428 28.4702C57.4428 29.6022 56.4486 30.1884 55.3059 30.1884H53.8235V32.1953H53.416V26.8079ZM55.3281 29.8175C56.3473 29.8175 57.0382 29.294 57.0382 28.4774C57.0382 27.6245 56.3621 27.1785 55.3753 27.1785H53.8235V29.8175H55.3281Z" fill="black"/>
<path d="M58.4141 29.5018C58.4141 28.0305 59.5192 26.7148 61.1798 26.7148C62.8432 26.7148 63.9307 28.0162 63.9307 29.5018C63.9307 30.9702 62.8255 32.2891 61.165 32.2891C59.5044 32.2891 58.4141 30.9877 58.4141 29.5018ZM63.5067 29.5018C63.5067 28.1688 62.52 27.0759 61.165 27.0759C59.8083 27.0759 58.8357 28.1541 58.8357 29.5018C58.8357 30.8323 59.8254 31.9251 61.1798 31.9251C62.537 31.9251 63.5067 30.8468 63.5067 29.5018Z" fill="black"/>
<path d="M65.3184 26.8079H65.7252V31.6184L69.2905 26.8079H69.6929V32.1953H69.2831V27.3848L65.7252 32.1953H65.3184V26.8079Z" fill="black"/>
<path d="M72.8477 27.1763H70.9355V26.8055H75.1672V27.1763H73.2551V32.1953H72.8477V27.1763Z" fill="black"/>
<path d="M76.4102 26.8079H80.3129V27.1785H76.817V29.294H79.9601V29.6626H76.817V31.8269H80.3499V32.1953H76.4102V26.8079Z" fill="black"/>
<path d="M80.8516 32.1192L80.9773 31.7893C81.0712 31.8329 81.2983 31.8816 81.5003 31.8816C81.9248 31.8816 82.709 31.6172 82.709 27.8391V26.8065H86.0694V32.1963H85.6625V27.1773H83.1017V27.8535C83.1017 31.758 82.2999 32.25 81.51 32.25C81.308 32.25 80.9995 32.1795 80.8516 32.1192Z" fill="black"/>
<path d="M87.7031 26.8079H88.11V28.9716H89.7336C90.7773 28.9716 91.7322 29.4082 91.7322 30.5177C91.7322 31.5575 90.94 32.1953 89.7729 32.1953H87.7031V26.8079ZM89.7012 31.8269C90.6885 31.8269 91.3077 31.4027 91.3077 30.5327C91.3077 29.733 90.6737 29.3399 89.6545 29.3399H88.11V31.8269H89.7012Z" fill="black"/>
<path d="M100.988 26.7695H101.38L103.933 32.1953H103.487L102.791 30.6885H99.5544L98.8562 32.1953H98.4316L100.988 26.7695ZM102.618 30.3245L101.175 27.2082L99.7268 30.3245H102.618Z" fill="black"/>
<path d="M106.407 29.9725C105.482 29.8489 104.865 29.2938 104.865 28.3777C104.865 27.4929 105.608 26.8068 106.824 26.8068H109.126V32.1973H108.719V30.0402H106.864L105.178 32.1973H104.66L106.407 29.9725ZM108.719 29.679V27.178H106.846C105.852 27.178 105.272 27.67 105.272 28.4088C105.272 29.1871 105.953 29.679 106.868 29.679H108.719Z" fill="black"/>
<path d="M113.125 26.8079H113.532V30.3485L117.028 26.8079H117.583L115.187 29.1873L117.687 32.1953H117.152L114.897 29.4714L113.532 30.8258V32.1953H113.125V26.8079Z" fill="black"/>
<path d="M118.178 29.5018C118.178 28.0305 119.283 26.7148 120.943 26.7148C122.604 26.7148 123.694 28.0162 123.694 29.5018C123.694 30.9702 122.589 32.2891 120.926 32.2891C119.266 32.2891 118.178 30.9877 118.178 29.5018ZM123.27 29.5018C123.27 28.1688 122.283 27.0759 120.926 27.0759C119.571 27.0759 118.599 28.1541 118.599 29.5018C118.599 30.8323 119.586 31.9251 120.943 31.9251C122.298 31.9251 123.27 30.8468 123.27 29.5018Z" fill="black"/>
<path d="M125.084 26.8079H125.469L127.669 29.9946L129.873 26.8079H130.257V32.1953H129.848V27.5178L127.677 30.6173H127.647L125.476 27.5178V32.1953H125.084V26.8079Z" fill="black"/>
<path d="M131.895 26.8079H136.141V32.1953H135.734V27.1785H132.302V32.1953H131.895V26.8079Z" fill="black"/>
<path d="M139.864 26.7695H140.257L142.81 32.1953H142.363L141.668 30.6885H138.43L137.732 32.1953H137.311L139.864 26.7695ZM141.495 30.3245L140.052 27.2082L138.601 30.3245H141.495Z" fill="black"/>
<path d="M143.975 26.8079H144.381V29.3015H147.893V26.8079H148.3V32.1953H147.893V29.672H144.381V32.1953H143.975V26.8079Z" fill="black"/>
<path d="M93.084 26.65H93.4986V29.242H97.077V26.65H97.4917V32.25H97.077V29.6271H93.4986V32.25H93.084V26.65Z" fill="black"/>
<path d="M149.934 26.8079H150.341V31.6184L153.906 26.8079H154.306V32.1953H153.899V27.3848L150.341 32.1953H149.934V26.8079Z" fill="black"/>
<path d="M157.249 29.9725C156.326 29.8489 155.707 29.2938 155.707 28.3777C155.707 27.4929 156.449 26.8068 157.663 26.8068H159.967V32.1973H159.561V30.0402H157.705L156.02 32.1973H155.502L157.249 29.9725ZM159.561 29.679V27.178H157.691C156.694 27.178 156.114 27.67 156.114 28.4088C156.114 29.1871 156.795 29.679 157.713 29.679H159.561Z" fill="black"/>
</svg>
