<svg width="52" height="52" viewBox="0 0 52 52" fill="none" xmlns="http://www.w3.org/2000/svg">
<g clip-path="url(#clip0_1452_21761)">
<rect x="7.05556" y="7.05556" width="37.8889" height="37.8889" rx="18.9444" fill="white"/>
<rect x="7.05556" y="7.05556" width="37.8889" height="37.8889" rx="18.9444" stroke="#2097FF" stroke-width="6.11111"/>
<path d="M17.1641 17.7856H21.2659L22.8368 21.582H34.2041V26.0002L23.4695 28.5311L19.6732 19.6729H17.1641V17.7856ZM21.5822 33.582C22.0857 33.582 22.5685 33.382 22.9245 33.026C23.2804 32.6701 23.4804 32.1873 23.4804 31.6838C23.4804 31.1804 23.2804 30.6976 22.9245 30.3416C22.5685 29.9856 22.0857 29.7856 21.5822 29.7856C21.0788 29.7856 20.596 29.9856 20.24 30.3416C19.884 30.6976 19.6841 31.1804 19.6841 31.6838C19.6841 32.1873 19.884 32.6701 20.24 33.026C20.596 33.382 21.0788 33.582 21.5822 33.582ZM29.7859 33.582C30.2893 33.582 30.7721 33.382 31.1281 33.026C31.4841 32.6701 31.6841 32.1873 31.6841 31.6838C31.6841 31.1804 31.4841 30.6976 31.1281 30.3416C30.7721 29.9856 30.2893 29.7856 29.7859 29.7856C29.2825 29.7856 28.7996 29.9856 28.4437 30.3416C28.0877 30.6976 27.8877 31.1804 27.8877 31.6838C27.8877 32.1873 28.0877 32.6701 28.4437 33.026C28.7996 33.382 29.2825 33.582 29.7859 33.582Z" fill="#808285"/>
</g>
<rect x="2.47222" y="2.47222" width="47.0556" height="47.0556" rx="23.5278" stroke="white" stroke-width="3.05556"/>
<defs>
<clipPath id="clip0_1452_21761">
<rect x="4" y="4" width="44" height="44" rx="22" fill="white"/>
</clipPath>
</defs>
</svg>
