<svg width="18" height="18" viewBox="0 0 18 18" fill="none" xmlns="http://www.w3.org/2000/svg">
<path fill-rule="evenodd" clip-rule="evenodd" d="M0.796875 3.375C0.796875 2.98667 1.11167 2.67188 1.5 2.67188H16.5C16.8883 2.67188 17.2031 2.98667 17.2031 3.375V14.625C17.2031 15.0133 16.8883 15.3281 16.5 15.3281H1.5C1.11167 15.3281 0.796875 15.0133 0.796875 14.625V3.375ZM2.20312 4.07812V13.9219H15.7969V4.07812H2.20312Z" fill="#333333"/>
<path fill-rule="evenodd" clip-rule="evenodd" d="M0.937541 2.95317C1.17054 2.64251 1.61126 2.57955 1.92192 2.81254L9.00004 8.12114L16.0782 2.81254C16.3888 2.57955 16.8295 2.64251 17.0625 2.95317C17.2955 3.26383 17.2326 3.70455 16.9219 3.93754L9.42192 9.56254C9.17192 9.75004 8.82817 9.75004 8.57817 9.56254L1.07817 3.93754C0.767506 3.70455 0.704546 3.26383 0.937541 2.95317Z" fill="#333333"/>
<path fill-rule="evenodd" clip-rule="evenodd" d="M0.796875 3.375C0.796875 2.98667 1.11167 2.67188 1.5 2.67188H9C9.38832 2.67188 9.70312 2.98667 9.70312 3.375C9.70312 3.76333 9.38832 4.07812 9 4.07812H2.20312V9C2.20312 9.38833 1.88833 9.70312 1.5 9.70312C1.11167 9.70312 0.796875 9.38833 0.796875 9V3.375Z" fill="#333333"/>
<path fill-rule="evenodd" clip-rule="evenodd" d="M8.29688 3.375C8.29688 2.98667 8.61167 2.67188 9 2.67188H16.5C16.8883 2.67188 17.2031 2.98667 17.2031 3.375V9C17.2031 9.38833 16.8883 9.70312 16.5 9.70312C16.1117 9.70312 15.7969 9.38833 15.7969 9V4.07812H9C8.61167 4.07812 8.29688 3.76333 8.29688 3.375Z" fill="#333333"/>
</svg>
