<svg width="52" height="52" viewBox="0 0 52 52" fill="none" xmlns="http://www.w3.org/2000/svg">
<g clip-path="url(#clip0_1452_2698)">
<rect x="7.05556" y="7.05556" width="37.8889" height="37.8889" rx="18.9444" fill="white"/>
<rect x="7.05556" y="7.05556" width="37.8889" height="37.8889" rx="18.9444" stroke="#ED4544" stroke-width="6.11111"/>
<g clip-path="url(#clip1_1452_2698)">
<path fill-rule="evenodd" clip-rule="evenodd" d="M23 19C23 18.7365 23.104 18.4837 23.2893 18.2964C23.4747 18.1092 23.7265 18.0026 23.99 18H28.01C28.2735 18.0026 28.5253 18.1092 28.7107 18.2964C28.896 18.4837 29 18.7365 29 19V23H33C33.2635 23 33.5163 23.104 33.7036 23.2893C33.8908 23.4747 33.9974 23.7265 34 23.99V28.01C33.9974 28.2735 33.8908 28.5253 33.7036 28.7107C33.5163 28.896 33.2635 29 33 29H29V33C29 33.2635 28.896 33.5163 28.7107 33.7036C28.5253 33.8908 28.2735 33.9974 28.01 34H23.99C23.7265 33.9974 23.4747 33.8908 23.2893 33.7036C23.104 33.5163 23 33.2635 23 33V29H19C18.7365 29 18.4837 28.896 18.2964 28.7107C18.1092 28.5253 18.0026 28.2735 18 28.01V23.99C18.0026 23.7265 18.1092 23.4747 18.2964 23.2893C18.4837 23.104 18.7365 23 19 23H23V19Z" fill="#808285"/>
</g>
</g>
<rect x="2.47222" y="2.47222" width="47.0556" height="47.0556" rx="23.5278" stroke="white" stroke-width="3.05556"/>
<defs>
<clipPath id="clip0_1452_2698">
<rect x="4" y="4" width="44" height="44" rx="22" fill="white"/>
</clipPath>
<clipPath id="clip1_1452_2698">
<rect width="24" height="24" fill="white" transform="translate(14 14)"/>
</clipPath>
</defs>
</svg>
