<svg width="18" height="18" viewBox="0 0 18 18" fill="none" xmlns="http://www.w3.org/2000/svg">
<path fill-rule="evenodd" clip-rule="evenodd" d="M4.47147 3.58545C3.94215 3.58545 3.63583 4.05181 3.7788 4.47552C4.41004 6.34628 5.57987 9.13794 7.31236 10.8704C9.04482 12.6029 11.8365 13.7727 13.7073 14.404C14.1309 14.5469 14.5973 14.2406 14.5973 13.7113V11.8087C14.5973 11.7918 14.5882 11.7761 14.5732 11.7677L12.916 10.8464C12.9024 10.8389 12.8861 10.8385 12.8723 10.8454L11.1049 11.7291C10.9667 11.7982 10.8097 11.8198 10.658 11.7908L10.7904 11.1002C10.658 11.7908 10.658 11.7908 10.658 11.7908L10.656 11.7904L10.6536 11.7899L10.6472 11.7886L10.6288 11.7848C10.6141 11.7817 10.5944 11.7773 10.5702 11.7716C10.5219 11.7602 10.4553 11.7433 10.3737 11.7197C10.2106 11.6726 9.98567 11.5985 9.72462 11.4872C9.20526 11.2659 8.52553 10.8904 7.90898 10.2738C7.29251 9.65733 6.91597 8.9767 6.69366 8.45671C6.58191 8.1953 6.5072 7.97 6.45973 7.80673C6.43596 7.72495 6.41888 7.65828 6.40733 7.60991C6.40155 7.58571 6.39715 7.56604 6.39397 7.5513L6.39009 7.53292L6.38881 7.52658L6.38833 7.52414L6.38803 7.52263C6.38803 7.52263 6.38794 7.52219 7.07813 7.38794L6.38803 7.52263C6.35842 7.3704 6.37988 7.21221 6.44924 7.0735L7.33304 5.30586C7.33993 5.29207 7.33963 5.27568 7.33211 5.26212M7.33211 5.26212L6.41473 3.60961C6.40644 3.59471 6.39073 3.58545 6.3737 3.58545H4.47147M7.82544 7.46556C7.86021 7.57894 7.91233 7.72995 7.9867 7.90391C8.16044 8.31029 8.44791 8.82399 8.90334 9.27943C9.35869 9.73477 9.8711 10.021 10.2759 10.1935C10.449 10.2673 10.5993 10.3189 10.7121 10.3533L12.2433 9.58769C12.6725 9.37308 13.18 9.38419 13.5993 9.61733L15.2565 10.5387C15.7175 10.795 16.0036 11.2811 16.0036 11.8087V13.7113C16.0036 15.1197 14.67 16.213 13.2576 15.7364C11.3575 15.0953 8.29565 13.8425 6.31801 11.8648C4.34032 9.88713 3.08751 6.82527 2.44635 4.92511C1.9698 3.51275 3.06305 2.1792 4.47147 2.1792H6.3737C6.9016 2.1792 7.38795 2.46548 7.64419 2.92699L8.56161 4.57958C8.7943 4.99876 8.80531 5.50582 8.59083 5.93474L7.82544 7.46556Z" fill="#333333"/>

</svg>
