<svg width="48" height="48" viewBox="0 0 48 48" fill="none" xmlns="http://www.w3.org/2000/svg">
<rect width="48" height="48" rx="24" fill="white"/>
<path d="M19.8836 15.2781C19.6343 15.1184 19.3411 15.0235 19.0359 15.0038C18.7307 14.9842 18.4254 15.0405 18.1534 15.1666C17.8815 15.2927 17.6533 15.4837 17.4939 15.7188C17.3346 15.9539 17.2502 16.2239 17.25 16.4992V31.5008C17.2502 31.7761 17.3346 32.0461 17.4939 32.2812C17.6533 32.5163 17.8815 32.7073 18.1534 32.8334C18.4254 32.9595 18.7307 33.0158 19.0359 32.9962C19.3411 32.9765 19.6343 32.8816 19.8836 32.7219L31.5514 25.2211C31.7674 25.0824 31.9436 24.8991 32.0651 24.6867C32.1866 24.4743 32.25 24.2389 32.25 24C32.25 23.7611 32.1866 23.5257 32.0651 23.3133C31.9436 23.1009 31.7674 22.9176 31.5514 22.7789L19.8836 15.2781Z" fill="#111111"/>
</svg>
