<svg width="52" height="52" viewBox="0 0 52 52" fill="none" xmlns="http://www.w3.org/2000/svg">
<g clip-path="url(#clip0_1452_21727)">
<rect x="7.05556" y="7.05556" width="37.8889" height="37.8889" rx="18.9444" fill="white"/>
<rect x="7.05556" y="7.05556" width="37.8889" height="37.8889" rx="18.9444" stroke="#B51EFF" stroke-width="6.11111"/>
<path fill-rule="evenodd" clip-rule="evenodd" d="M25 30.9998C25 32.6098 23.61 33.9998 22 33.9998C20.39 33.9998 19 32.6098 19 30.9998C19 29.3898 20.39 27.9998 22 27.9998C22.51 27.9998 23 28.1498 23.42 28.3798L24 26.9698C23.8731 26.8477 23.7622 26.7099 23.67 26.5598L20.62 22.5298C20.2462 21.853 20.0989 21.0743 20.1996 20.3078C20.3004 19.5412 20.644 18.827 21.18 18.2698C21.2757 18.1735 21.3914 18.0993 21.5189 18.0524C21.6464 18.0056 21.7826 17.9872 21.918 17.9987C22.0533 18.0101 22.1845 18.0511 22.3024 18.1186C22.4202 18.1862 22.5218 18.2788 22.6 18.3898L26 22.9298L29.4 18.3898C29.4806 18.2765 29.5853 18.1825 29.7065 18.1146C29.8278 18.0466 29.9627 18.0064 30.1013 17.9969C30.24 17.9873 30.3791 18.0086 30.5086 18.0593C30.638 18.1099 30.7546 18.1887 30.85 18.2898C31.3796 18.8473 31.7167 19.5597 31.8121 20.3227C31.9075 21.0857 31.756 21.8591 31.38 22.5298L28.33 26.5598C28.2371 26.7064 28.1263 26.8408 28 26.9598L28.6 28.3798C29.0269 28.1366 29.5087 28.0058 30 27.9998C31.61 27.9998 33 29.3898 33 30.9998C33 32.6098 31.61 33.9998 30 33.9998C28.39 33.9998 27 32.5998 27 30.9998C27 30.5398 27.2 30.0498 27.38 29.6698L26.6 28.7098C26.2068 28.8141 25.7932 28.8141 25.4 28.7098L24.64 29.6698C24.82 30.0498 25 30.5398 25 30.9998ZM22 32.2498C22.3315 32.2498 22.6495 32.1181 22.8839 31.8837C23.1183 31.6493 23.25 31.3313 23.25 30.9998C23.25 30.6683 23.1183 30.3504 22.8839 30.1159C22.6495 29.8815 22.3315 29.7498 22 29.7498C21.6685 29.7498 21.3505 29.8815 21.1161 30.1159C20.8817 30.3504 20.75 30.6683 20.75 30.9998C20.75 31.3313 20.8817 31.6493 21.1161 31.8837C21.3505 32.1181 21.6685 32.2498 22 32.2498ZM30 32.2498C30.3315 32.2498 30.6495 32.1181 30.8839 31.8837C31.1183 31.6493 31.25 31.3313 31.25 30.9998C31.25 30.6683 31.1183 30.3504 30.8839 30.1159C30.6495 29.8815 30.3315 29.7498 30 29.7498C29.6685 29.7498 29.3505 29.8815 29.1161 30.1159C28.8817 30.3504 28.75 30.6683 28.75 30.9998C28.75 31.3313 28.8817 31.6493 29.1161 31.8837C29.3505 32.1181 29.6685 32.2498 30 32.2498Z" fill="#808285"/>
</g>
<rect x="2.47222" y="2.47222" width="47.0556" height="47.0556" rx="23.5278" stroke="white" stroke-width="3.05556"/>
<defs>
<clipPath id="clip0_1452_21727">
<rect x="4" y="4" width="44" height="44" rx="22" fill="white"/>
</clipPath>
</defs>
</svg>
