<svg width="12" height="12" viewBox="0 0 12 12" fill="none" xmlns="http://www.w3.org/2000/svg">
<g id="ico / time" clip-path="url(#clip0_1630_2217)">
<path id="Vector (Stroke)" fill-rule="evenodd" clip-rule="evenodd" d="M0.53125 6C0.53125 2.97969 2.97969 0.53125 6 0.53125C9.02031 0.53125 11.4688 2.97969 11.4688 6C11.4688 9.02031 9.02031 11.4688 6 11.4688C2.97969 11.4688 0.53125 9.02031 0.53125 6ZM6 1.46875C3.49746 1.46875 1.46875 3.49746 1.46875 6C1.46875 8.50254 3.49746 10.5312 6 10.5312C8.50254 10.5312 10.5312 8.50254 10.5312 6C10.5312 3.49746 8.50254 1.46875 6 1.46875Z" fill="#333333"/>
<path id="Vector (Stroke)_2" fill-rule="evenodd" clip-rule="evenodd" d="M6.0023 2.53125C6.26118 2.53128 6.47103 2.74116 6.471 3.00005L6.47072 5.80806L8.45326 7.79059C8.63632 7.97365 8.63632 8.27045 8.45326 8.45351C8.2702 8.63657 7.97341 8.63657 7.79035 8.45351L5.6705 6.33366C5.58258 6.24574 5.53319 6.12649 5.5332 6.00215L5.5335 2.99995C5.53353 2.74107 5.74342 2.53122 6.0023 2.53125Z" fill="#333333"/>
</g>
<defs>
<clipPath id="clip0_1630_2217">
<rect width="12" height="12" fill="white"/>
</clipPath>
</defs>
</svg>
