<svg width="12" height="12" viewBox="0 0 12 12" fill="none" xmlns="http://www.w3.org/2000/svg">
<path fill-rule="evenodd" clip-rule="evenodd" d="M2.31851 3.98823C3.21616 3.15037 4.51777 2.25 6 2.25C7.48223 2.25 8.78384 3.15037 9.68149 3.98823C10.1367 4.41311 10.504 4.83684 10.7576 5.15432C10.8847 5.31339 10.9839 5.44665 11.0521 5.54122C11.0862 5.58852 11.1126 5.62621 11.1309 5.65268L11.1521 5.6838L11.1581 5.69269L11.1599 5.6954L11.1605 5.69632C11.1606 5.69646 11.1609 5.69694 10.8003 6C11.1609 6.30306 11.1609 6.30319 11.1608 6.30334L11.1599 6.3046L11.1581 6.30731L11.1521 6.3162L11.1309 6.34732C11.1126 6.37379 11.0862 6.41148 11.0521 6.45878C10.9839 6.55335 10.8847 6.68661 10.7576 6.84568C10.504 7.16316 10.1367 7.58689 9.68149 8.01177C8.78384 8.84963 7.48223 9.75 6 9.75C4.51777 9.75 3.21616 8.84963 2.31851 8.01177C1.86329 7.58689 1.49603 7.16316 1.24239 6.84568C1.11531 6.68661 1.01607 6.55335 0.947888 6.45878C0.913779 6.41148 0.887392 6.37379 0.869129 6.34732L0.847862 6.3162L0.841882 6.30731L0.840071 6.3046L0.839462 6.30368C0.839368 6.30354 0.839052 6.30306 1.19973 6C0.839052 5.69694 0.839138 5.69681 0.839232 5.69667L0.840071 5.6954L0.841882 5.69269L0.847862 5.6838L0.869129 5.65268C0.887392 5.62621 0.913779 5.58852 0.947888 5.54122C1.01607 5.44665 1.11531 5.31339 1.24239 5.15432C1.49603 4.83684 1.86329 4.41311 2.31851 3.98823ZM1.19973 6L0.839232 5.69667C0.720103 5.87644 0.720333 6.12391 0.839462 6.30368L1.19973 6ZM1.7804 6C1.81933 6.051 1.86312 6.10724 1.91153 6.16784C2.1437 6.45846 2.47942 6.84555 2.89289 7.23147C3.73259 8.01523 4.83111 8.73649 6 8.73649C7.16889 8.73649 8.26741 8.01523 9.10711 7.23147C9.52058 6.84555 9.8563 6.45846 10.0885 6.16784C10.1369 6.10725 10.1807 6.05099 10.2196 6C10.1807 5.949 10.1369 5.89275 10.0885 5.83216C9.8563 5.54154 9.52058 5.15445 9.10711 4.76853C8.26741 3.98477 7.16889 3.26351 6 3.26351C4.83111 3.26351 3.73259 3.98477 2.89289 4.76853C2.47942 5.15445 2.1437 5.54154 1.91153 5.83216C1.86312 5.89275 1.81933 5.949 1.7804 6ZM10.8003 6L11.1608 6.30334C11.2799 6.12356 11.2797 5.87609 11.1605 5.69632L10.8003 6Z" fill="#333333"/>
<path fill-rule="evenodd" clip-rule="evenodd" d="M4.28125 6C4.28125 5.05077 5.05077 4.28125 6 4.28125C6.94923 4.28125 7.71875 5.05077 7.71875 6C7.71875 6.94923 6.94923 7.71875 6 7.71875C5.05077 7.71875 4.28125 6.94923 4.28125 6ZM6 5.21875C5.56853 5.21875 5.21875 5.56853 5.21875 6C5.21875 6.43147 5.56853 6.78125 6 6.78125C6.43147 6.78125 6.78125 6.43147 6.78125 6C6.78125 5.56853 6.43147 5.21875 6 5.21875Z" fill="#333333"/>
</svg>
