<svg width="16" height="16" viewBox="0 0 16 16" fill="none" xmlns="http://www.w3.org/2000/svg">
<mask id="mask0_1452_23999" style="mask-type:alpha" maskUnits="userSpaceOnUse" x="0" y="0" width="16" height="17">
<g clip-path="url(#clip0_1452_23999)">
<path d="M9.66805 4.66781C10.5885 4.66781 11.3347 3.92161 11.3347 3.00114C11.3347 2.08067 10.5885 1.33447 9.66805 1.33447C8.74758 1.33447 8.00138 2.08067 8.00138 3.00114C8.00138 3.92161 8.74758 4.66781 9.66805 4.66781Z" fill="#333333"/>
<path fill-rule="evenodd" clip-rule="evenodd" d="M7.25138 3.00114C7.25138 1.66645 8.33337 0.584473 9.66805 0.584473C11.0027 0.584473 12.0847 1.66645 12.0847 3.00114C12.0847 4.33582 11.0027 5.41781 9.66805 5.41781C8.33337 5.41781 7.25138 4.33582 7.25138 3.00114ZM9.66805 2.08447C9.16179 2.08447 8.75138 2.49488 8.75138 3.00114C8.75138 3.50739 9.1618 3.91781 9.66805 3.91781C10.1743 3.91781 10.5847 3.50739 10.5847 3.00114C10.5847 2.49488 10.1743 2.08447 9.66805 2.08447Z" fill="#333333"/>
<path fill-rule="evenodd" clip-rule="evenodd" d="M8.35582 5.67351C8.72086 5.86926 8.8581 6.32387 8.66234 6.68891L7.52881 8.80274L9.56778 10.4178C9.7983 10.5976 9.94832 10.8335 10.0323 11.0725L10.0365 11.0844L11.1497 14.4311C11.2805 14.8241 11.0678 15.2487 10.6748 15.3795C10.2818 15.5102 9.85715 15.2976 9.72639 14.9046L8.62086 11.5813L6.1057 9.58905C5.82109 9.36361 5.73883 8.96667 5.91042 8.6467L7.34042 5.98003C7.53617 5.61499 7.99078 5.47776 8.35582 5.67351Z" fill="#333333"/>
<path fill-rule="evenodd" clip-rule="evenodd" d="M6.99338 8.38113C7.3358 8.61419 7.42446 9.08071 7.1914 9.42314L5.45806 11.9698L5.45722 11.971C5.17767 12.38 4.82052 12.8117 4.5119 13.1817C4.49404 13.2032 4.47639 13.2243 4.45897 13.2452C4.15708 13.607 3.92275 13.8878 3.79209 14.0838C3.56232 14.4285 3.09667 14.5216 2.75202 14.2918C2.40738 14.0621 2.31425 13.5964 2.54401 13.2518C2.72218 12.9845 3.00835 12.6419 3.28221 12.3141C3.30829 12.2829 3.33425 12.2518 3.36 12.2209C3.67479 11.8435 3.98579 11.4655 4.21846 11.1252L5.95137 8.57914C6.18443 8.23672 6.65096 8.14806 6.99338 8.38113Z" fill="#333333"/>
<path fill-rule="evenodd" clip-rule="evenodd" d="M4.20012 5.15841C4.35594 4.87976 4.67108 4.73031 4.98545 4.78595L6.06051 4.97626C7.66951 5.26496 9.21634 5.83202 10.6301 6.66044L11.6981 7.28425L13.9906 7.25122C14.4047 7.24525 14.7453 7.57616 14.7513 7.99033C14.7573 8.4045 14.4264 8.74509 14.0122 8.75106L11.688 8.78455C11.4439 8.78455 11.1966 8.72356 10.9737 8.59815L10.9631 8.59218L9.87218 7.95488C8.61297 7.21694 7.23362 6.71081 5.79645 6.45284L5.24905 6.35594L4.15598 8.31054C3.95381 8.67206 3.49684 8.80124 3.13532 8.59907C2.7738 8.39689 2.64462 7.93993 2.84679 7.57841L4.20012 5.15841Z" fill="#333333"/>
</g>
</mask>
<g mask="url(#mask0_1452_23999)">
<rect y="0.000976562" width="16" height="16" fill="#F8F8FB"/>
</g>
<defs>
<clipPath id="clip0_1452_23999">
<rect width="16" height="16" fill="white" transform="translate(0 0.000976562)"/>
</clipPath>
</defs>
</svg>
