<svg width="66" height="66" viewBox="0 0 66 66" fill="none" xmlns="http://www.w3.org/2000/svg">
<path fill-rule="evenodd" clip-rule="evenodd" d="M0.939331 3.06065L1.65957 3.78089L3.78089 1.65957L3.06065 0.939331L0.939331 3.06065ZM3.10005 5.22137L4.54052 6.66184L6.66184 4.54052L5.22137 3.10005L3.10005 5.22137ZM5.981 8.10232L7.42147 9.54279L9.54279 7.42147L8.10232 5.981L5.981 8.10232ZM8.86195 10.9833L10.3024 12.4237L12.4237 10.3024L10.9833 8.86195L8.86195 10.9833ZM11.7429 13.8642L13.1834 15.3047L15.3047 13.1834L13.8642 11.7429L11.7429 13.8642ZM14.6239 16.7452L16.0643 18.1857L18.1857 16.0643L16.7452 14.6239L14.6239 16.7452ZM17.5048 19.6261L18.9453 21.0666L21.0666 18.9453L19.6261 17.5048L17.5048 19.6261ZM20.3858 22.5071L21.8262 23.9476L23.9476 21.8262L22.5071 20.3858L20.3858 22.5071ZM23.2667 25.388L24.7072 26.8285L26.8285 24.7072L25.388 23.2667L23.2667 25.388ZM26.1477 28.269L27.5881 29.7095L29.7095 27.5881L28.269 26.1477L26.1477 28.269ZM29.0286 31.1499L30.4691 32.5904L32.5904 30.4691L31.1499 29.0286L29.0286 31.1499ZM31.9096 34.0309L33.35 35.4714L35.4714 33.35L34.0309 31.9096L31.9096 34.0309ZM34.7905 36.9118L36.231 38.3523L38.3523 36.231L36.9118 34.7905L34.7905 36.9118ZM37.6715 39.7928L39.1119 41.2333L41.2333 39.1119L39.7928 37.6715L37.6715 39.7928ZM40.5524 42.6737L41.9929 44.1142L44.1142 41.9929L42.6737 40.5524L40.5524 42.6737ZM43.4334 45.5547L44.8738 46.9952L46.9952 44.8738L45.5547 43.4334L43.4334 45.5547ZM46.3143 48.4356L47.7548 49.8761L49.8761 47.7548L48.4356 46.3143L46.3143 48.4356ZM49.1953 51.3166L50.6357 52.7571L52.7571 50.6357L51.3166 49.1953L49.1953 51.3166ZM52.0762 54.1975L53.5167 55.638L55.638 53.5167L54.1975 52.0762L52.0762 54.1975ZM54.9572 57.0785L56.3977 58.519L58.519 56.3977L57.0785 54.9572L54.9572 57.0785ZM57.8381 59.9594L59.2786 61.3999L61.3999 59.2786L59.9594 57.8381L57.8381 59.9594ZM61.0595 62.5L62.5 61.0595V52H65.5V64V65.5H64H52V62.5H61.0595Z" fill="white"/>
</svg>
