<svg width="45" height="45" viewBox="0 0 45 45" fill="none" xmlns="http://www.w3.org/2000/svg">
<g opacity="0.65">
<circle cx="22.5" cy="22.5" r="22.5" fill="white"/>
<circle cx="22.5" cy="22.5" r="21.5" stroke="#612288" stroke-width="2"/>
</g>
<path d="M17.4117 11.2178C17.4117 11.2178 13.6463 11.2178 9.88086 13.7282L17.4117 11.2178Z" fill="black"/>
<path d="M24.9426 11.2178C24.9426 11.2178 28.708 11.2178 32.4734 13.7282M17.4117 11.2178C17.4117 11.2178 13.6463 11.2178 9.88086 13.7282" stroke="#612288" stroke-width="1.66667" stroke-miterlimit="10" stroke-linecap="round" stroke-linejoin="round"/>
<path d="M32.2834 10.3848L32.966 14.1653L29.1854 14.8479M10.2021 10.3848L9.51953 14.1653L13.3001 14.8479M32.4902 31.5604C32.4902 35.6371 29.1854 38.9425 25.1082 38.9425C21.031 38.9425 18.4834 35.5573 17.5434 31.5604M32.4907 31.1682V25.7849C32.4994 25.5789 32.4679 25.3732 32.397 25.1795C32.3261 24.9859 32.2178 24.8081 32.0783 24.6563C31.9387 24.5045 31.7706 24.3817 31.5836 24.2948C31.3965 24.208 31.1942 24.1589 30.9882 24.1502C30.7822 24.1416 30.5765 24.1736 30.3828 24.2445C30.1892 24.3153 30.0114 24.4236 29.8596 24.5632C29.7078 24.7028 29.585 24.8709 29.4982 25.0579C29.4113 25.2449 29.3622 25.4473 29.3536 25.6533" stroke="#612288" stroke-width="1.66667" stroke-miterlimit="10" stroke-linecap="round" stroke-linejoin="round"/>
<path d="M26.2151 25.5488C26.2237 25.3428 26.2729 25.1405 26.3597 24.9535C26.4465 24.7665 26.5693 24.5984 26.7211 24.4588C26.8729 24.3192 27.0507 24.2109 27.2444 24.1401C27.438 24.0692 27.6437 24.0372 27.8497 24.0458C28.0558 24.0545 28.2581 24.1036 28.4451 24.1904C28.6321 24.2772 28.8002 24.4001 28.9398 24.5518C29.0794 24.7036 29.1877 24.8814 29.2585 25.0751C29.3294 25.2687 29.3614 25.4744 29.3528 25.6805" stroke="#612288" stroke-width="1.66667" stroke-miterlimit="10" stroke-linecap="round" stroke-linejoin="round"/>
<path d="M26.2168 25.4886C26.2502 25.0736 26.4471 24.6888 26.7642 24.4189C27.0812 24.149 27.4925 24.0162 27.9076 24.0495C28.3226 24.0829 28.7074 24.2798 28.9773 24.5969C29.2472 24.914 29.38 25.3253 29.3467 25.7403M23.0582 25.3345C23.0942 24.9261 23.2885 24.548 23.5995 24.2809C23.9106 24.0138 24.3137 23.879 24.7229 23.9051C25.132 23.9313 25.5147 24.1165 25.7892 24.421C26.0636 24.7256 26.2081 25.1254 26.1917 25.5351M23.0577 25.3178V15.2979C23.0577 14.8815 22.8923 14.4821 22.5978 14.1877C22.3034 13.8932 21.904 13.7278 21.4876 13.7278C21.0711 13.7278 20.6718 13.8932 20.3773 14.1877C20.0828 14.4821 19.9174 14.8815 19.9174 15.2979V27.7651M18.5893 25.1434L17.7109 24.1501C17.4216 23.8505 17.0252 23.6782 16.6089 23.671C16.1925 23.6637 15.7904 23.8221 15.4908 24.1114C15.1913 24.4007 15.019 24.7971 15.0117 25.2135C15.0045 25.6298 15.1629 26.032 15.4522 26.3315L15.0393 25.5351M15.0393 25.5351C15.9151 26.4971 16.947 30.2301 17.7109 32.1102L15.0393 25.5351Z" stroke="#612288" stroke-width="1.66667" stroke-miterlimit="10" stroke-linecap="round" stroke-linejoin="round"/>
</svg>